<?xml version="1.0" encoding="UTF-8"?>
<svg version="1.1" xmlns="http://www.w3.org/2000/svg" width="512" height="512">
<path d="M0 0 C2.40083655 0.00412515 4.79317958 -0.06104827 7.19287109 -0.13061523 C21.23608894 -0.29562482 32.07206202 4.16257479 42.72802734 13.31665039 C44.22889846 14.79493315 45.71010699 16.29359898 47.16552734 17.81665039 C48.11298828 18.73510742 48.11298828 18.73510742 49.07958984 19.67211914 C59.33386475 30.26519167 63.85238285 44.77559033 64.54052734 59.25415039 C63.70347473 77.80881664 57.51614491 92.9694779 44.16552734 105.81665039 C43.38693359 106.59137695 42.60833984 107.36610352 41.80615234 108.16430664 C30.79868919 118.60578322 15.96073157 123.17695388 0.89990234 123.04711914 C-5.09267356 122.5420306 -10.96903544 121.09722662 -16.83447266 119.81665039 C-18.50067105 119.48098421 -20.16725315 119.14720749 -21.83447266 118.81665039 C-21.65271484 119.50702393 -21.47095703 120.19739746 -21.28369141 120.90869141 C-20.45847775 124.0632822 -19.64638325 127.22111077 -18.83447266 130.37915039 C-18.54830078 131.46518555 -18.26212891 132.5512207 -17.96728516 133.67016602 C-15.78461884 142.21894244 -14.16472404 149.80673436 -18.83447266 157.81665039 C-21.4981519 160.66530736 -24.3390258 163.06892696 -27.83447266 164.81665039 C-26.86960937 165.50887695 -26.86960937 165.50887695 -25.88525391 166.21508789 C-23.41830479 167.99579581 -20.95969204 169.78722707 -18.5078125 171.58862305 C-17.37983504 172.41642092 -16.24990491 173.24156379 -15.11816406 174.06420898 C-4.89956822 181.51868761 1.94070325 188.10832707 4.85302734 200.81665039 C5.49752234 207.00380235 5.18245364 212.71509259 4.16552734 218.81665039 C5.32052734 219.14665039 6.47552734 219.47665039 7.66552734 219.81665039 C12.41928561 221.41385261 16.90651096 223.45082193 21.41552734 225.62915039 C22.10066406 225.94819336 22.78580078 226.26723633 23.49169922 226.59594727 C28.26885728 228.95889276 31.11546464 231.41875046 34.16552734 235.81665039 C34.88326591 240.28257927 34.49319682 242.22684533 32.29052734 246.19165039 C30.16422707 248.81825661 29.44611608 249.62766168 26.19360352 250.10766602 C18.47175518 250.47496546 13.18684088 247.90231961 6.47802734 244.31665039 C-2.16901817 239.4263685 -2.16901817 239.4263685 -11.83447266 238.81665039 C-14.52522765 239.59496814 -14.52522765 239.59496814 -16.95947266 240.75415039 C-25.34167191 244.4899868 -35.0239742 245.56141452 -43.77197266 242.31665039 C-55.17600078 237.09356936 -65.18997558 229.49396164 -75.26416016 222.12915039 C-80.19399103 218.53469973 -85.21103696 215.07668239 -90.26269531 211.65625 C-93.26840116 209.61381398 -96.22752304 207.54742029 -99.10009766 205.32055664 C-100.06431641 204.57676758 -101.02853516 203.83297852 -102.02197266 203.06665039 C-102.84052734 202.41180664 -103.65908203 201.75696289 -104.50244141 201.08227539 C-106.74092917 199.60803521 -106.74092917 199.60803521 -109.20947266 199.92211914 C-112.47243319 201.03405063 -115.53273964 202.40067613 -118.64697266 203.87915039 C-120.38914062 204.70092773 -120.38914062 204.70092773 -122.16650391 205.53930664 C-123.04693359 205.96083008 -123.92736328 206.38235352 -124.83447266 206.81665039 C-119.78586424 211.30281437 -114.5675159 215.18735292 -108.95947266 218.94165039 C-107.26215575 220.0903529 -105.56555486 221.24011403 -103.86962891 222.39086914 C-103.02287598 222.96498535 -102.17612305 223.53910156 -101.30371094 224.13061523 C-96.94245931 227.10854719 -92.63515794 230.16172272 -88.33227539 233.22314453 C-84.49516874 235.95003821 -80.63836623 238.64192043 -76.74853516 241.29321289 C-49.33777842 260.04039992 -49.33777842 260.04039992 -45.83447266 270.81665039 C-45.54185547 271.57719727 -45.24923828 272.33774414 -44.94775391 273.12133789 C-40.02772359 287.77011595 -42.2395219 303.32491213 -48.58447266 317.06665039 C-62.87583544 344.14686104 -110.22271821 355.97586162 -137.08520508 367.68603516 C-145.95336984 371.55205743 -154.80721386 375.44859283 -163.64697266 379.37915039 C-164.71915039 379.85562012 -165.79132813 380.33208984 -166.89599609 380.82299805 C-173.55701964 383.78849332 -180.20125238 386.78949135 -186.83447266 389.81665039 C-184.2517856 392.55006094 -181.80412989 394.61885012 -178.54541016 396.48852539 C-177.69962402 396.97973877 -176.85383789 397.47095215 -175.98242188 397.97705078 C-175.06734863 398.50161865 -174.15227539 399.02618652 -173.20947266 399.56665039 C-164.63473267 404.55435061 -156.14496437 409.65937793 -147.70947266 414.87915039 C-139.90686985 419.70293266 -132.08697908 424.49110283 -124.20947266 429.19165039 C-117.71874316 433.06535793 -111.28431909 437.01456445 -104.88818359 441.04223633 C-99.7862079 444.24521362 -94.63214403 447.35437746 -89.45947266 450.44165039 C-79.27804936 456.52029124 -69.18022293 462.73146903 -59.08837891 468.95727539 C-58.06623291 469.58738525 -57.04408691 470.21749512 -55.9909668 470.86669922 C-53.80545597 472.21681717 -51.62251662 473.57110327 -49.44165039 474.92871094 C-31.55980105 486.02579058 -14.46976547 495.41481472 7.29052734 490.69165039 C12.53146179 489.24084867 17.0266489 486.98494485 21.69287109 484.21899414 C26.17184536 481.67878599 29.97601148 479.98632785 35.16552734 480.81665039 C38.1077597 482.37674537 40.21729083 484.10799107 42.16552734 486.81665039 C43.35196034 490.73827323 43.05373124 494.03655711 41.22412109 497.70336914 C36.96434605 503.36187628 30.44393676 506.8077804 24.16552734 509.81665039 C23.5922168 510.09766602 23.01890625 510.37868164 22.42822266 510.66821289 C14.9899637 513.74157124 6.98709224 513.33905596 -0.92480469 513.31762695 C-3.43364433 513.31666034 -5.93935853 513.35824384 -8.44775391 513.40258789 C-22.58073154 513.50918538 -34.16490626 510.40712973 -46.58447266 503.44165039 C-47.30143311 503.05082275 -48.01839355 502.65999512 -48.75708008 502.25732422 C-53.54806116 499.61653674 -58.1879494 496.78774921 -62.76416016 493.78930664 C-66.71489527 491.25098446 -70.73981876 488.84787796 -74.77197266 486.44165039 C-99.43496843 471.69851821 -123.93306912 456.68356885 -148.34985352 441.53662109 C-155.52613133 437.08529628 -162.71280907 432.65788882 -169.96533203 428.33178711 C-176.67634629 424.32572247 -183.34346557 420.24791073 -190.01586914 416.17797852 C-195.4467674 412.86862881 -200.88936381 409.58081417 -206.35131836 406.32299805 C-215.42744731 400.90935945 -224.40484211 395.35308685 -233.35424805 389.73266602 C-241.09795955 384.87896678 -248.89108464 380.1110846 -256.70947266 375.37915039 C-265.7731555 369.89345803 -274.81764174 364.37924855 -283.83447266 358.81665039 C-292.73411261 353.33013642 -301.64909158 347.86970317 -310.58447266 342.44165039 C-311.44073746 341.92095474 -311.44073746 341.92095474 -312.31430054 341.38973999 C-319.19589888 337.20626079 -326.09776589 333.05938487 -333.02587891 328.95336914 C-335.07010578 327.7386104 -337.11410418 326.5234679 -339.15808105 325.30828857 C-341.09444542 324.16029179 -343.03512336 323.01985791 -344.97607422 321.87963867 C-360.35182213 312.78195145 -360.35182213 312.78195145 -362.83447266 307.81665039 C-363.10902084 304.17888696 -363.09342445 301.48687857 -361.77197266 298.06665039 C-359.11055344 294.97597001 -356.71477795 294.00047234 -352.83447266 292.81665039 C-347.92153451 293.18359183 -344.54901039 294.8351936 -340.33447266 297.31665039 C-339.72337646 297.67484863 -339.11228027 298.03304688 -338.48266602 298.40209961 C-333.80824413 301.16799422 -329.23891942 304.08979597 -324.68847656 307.05493164 C-316.27603257 312.5165561 -307.66128195 317.65394536 -299.08251953 322.84838867 C-295.72162652 324.88503325 -292.36357904 326.92632283 -289.00634766 328.96899414 C-273.65032136 338.30967303 -258.25853373 347.58866662 -242.83447266 356.81665039 C-242.7804126 356.2249707 -242.72635254 355.63329102 -242.6706543 355.02368164 C-241.60907655 344.36661455 -238.3113008 335.795308 -229.83447266 328.81665039 C-225.5589215 326.20381358 -221.11730947 324.12234204 -216.55615234 322.05834961 C-213.43807034 320.63580161 -210.34363816 319.16742465 -207.24853516 317.69555664 C-193.78892321 311.31172609 -180.23320477 305.16018035 -166.58447266 299.19165039 C-165.91351563 298.8979657 -165.24255859 298.60428101 -164.55126953 298.30169678 C-157.02843748 295.01393197 -149.48411712 291.79996697 -141.83447266 288.81665039 C-147.77170525 283.98453611 -153.83984225 279.83694435 -160.45947266 276.00415039 C-167.16549488 272.05237626 -173.73048856 267.98112998 -180.171875 263.61303711 C-185.24556962 260.18167866 -190.40059756 256.89134679 -195.58447266 253.62915039 C-196.39787109 253.11642578 -197.21126953 252.60370117 -198.04931641 252.07543945 C-201.40333172 249.96410874 -204.76170079 247.8615192 -208.13525391 245.78149414 C-224.90233006 235.37025449 -238.04349168 222.54136602 -242.70947266 202.75415039 C-245.48715299 187.69184811 -243.17938962 173.84820758 -234.83447266 160.81665039 C-231.47675793 156.52910697 -227.6693563 152.67379751 -223.83447266 148.81665039 C-222.76519531 147.70870117 -222.76519531 147.70870117 -221.67431641 146.57836914 C-219.13591323 143.97529327 -216.87600413 141.84433804 -213.83447266 139.81665039 C-234.4743725 129.34616635 -255.34117155 119.30780954 -276.33447266 109.56665039 C-277.49043945 109.03015869 -278.64640625 108.49366699 -279.83740234 107.94091797 C-285.13988346 105.49067256 -290.4479232 103.07652459 -295.83447266 100.81665039 C-296.05361328 101.33614258 -296.27275391 101.85563477 -296.49853516 102.39086914 C-298.85209589 107.5667893 -300.94302635 110.80652958 -305.83447266 113.81665039 C-310.02697973 114.74740343 -313.06773647 114.28974293 -316.77197266 112.00415039 C-319.91162832 108.67421256 -320.16028621 105.57921414 -320.13525391 101.09008789 C-319.5934677 96.99502849 -317.71943862 93.4519419 -315.83447266 89.81665039 C-316.62724609 89.5755957 -317.42001953 89.33454102 -318.23681641 89.08618164 C-322.76101115 87.48969598 -327.05435085 85.53608093 -331.39697266 83.50415039 C-332.23421875 83.12581055 -333.07146484 82.7474707 -333.93408203 82.35766602 C-338.69817812 80.1283859 -342.51704408 78.04487599 -345.83447266 73.81665039 C-346.9391906 70.08010439 -346.54319294 66.47824341 -345.01806641 62.90258789 C-343.43067641 60.56851619 -341.68999664 59.06210218 -338.95556641 58.27758789 C-328.54459333 57.54901151 -318.0909944 64.00361843 -309.19775391 68.67993164 C-306.97115577 69.96113616 -306.97115577 69.96113616 -304.83447266 69.81665039 C-304.59212891 69.27395508 -304.34978516 68.73125977 -304.10009766 68.17211914 C-300.44973983 60.38000917 -300.44973983 60.38000917 -296.83447266 58.81665039 C-292.14773905 58.12068807 -288.90822805 58.14555327 -284.83447266 60.69165039 C-281.77510703 63.94222637 -281.56749967 66.12483732 -281.60009766 70.57446289 C-281.98917654 74.29665086 -283.36552295 77.38910108 -284.83447266 80.81665039 C-284.29822266 81.01258789 -283.76197266 81.20852539 -283.20947266 81.41040039 C-277.85541808 83.4533949 -272.72677675 85.82207851 -267.62353516 88.42211914 C-261.69725449 91.41257311 -255.73739921 94.31856152 -249.73291016 97.14868164 C-248.9615976 97.51227783 -248.19028503 97.87587402 -247.39559937 98.25048828 C-245.00078082 99.37789792 -242.60524515 100.50376945 -240.20947266 101.62915039 C-221.64012156 110.35231756 -221.64012156 110.35231756 -213.75634766 114.42993164 C-212.7542627 114.94773193 -211.75217773 115.46553223 -210.71972656 115.99902344 C-208.94865671 116.92466042 -207.18454791 117.86381312 -205.4296875 118.81982422 C-200.27738741 121.51652108 -196.66792105 122.6193623 -190.83447266 121.81665039 C-188.26272162 120.30951654 -188.26272162 120.30951654 -186.20947266 118.00415039 C-182.31087859 114.18914027 -178.33990372 110.75680267 -174.02197266 107.44165039 C-169.36443117 103.83656446 -164.80706774 100.14874255 -160.33447266 96.31665039 C-139.10479225 78.21562237 -116.80750594 60.72697135 -87.30322266 61.45727539 C-77.76861242 62.44509537 -68.54932495 64.84604536 -59.83447266 68.81665039 C-59.85767578 68.18500977 -59.88087891 67.55336914 -59.90478516 66.90258789 C-60.23350908 50.60727363 -57.03353988 36.35842448 -47.83447266 22.81665039 C-47.42970703 22.21336914 -47.02494141 21.61008789 -46.60791016 20.98852539 C-43.43822369 16.82709654 -39.39552812 13.7753931 -35.20947266 10.69165039 C-34.39446289 10.07966797 -34.39446289 10.07966797 -33.56298828 9.45532227 C-22.92631881 1.91339969 -12.74492006 -0.07104912 0 0 Z M-28.83447266 32.81665039 C-37.14030118 43.27521407 -40.21425256 54.57393521 -38.83447266 67.81665039 C-36.73086569 78.33468522 -31.34554429 87.94482229 -22.52197266 94.25415039 C-13.04855266 99.92509039 -1.41333918 103.6744941 9.61865234 101.28540039 C20.79725945 98.13070145 30.83638687 92.94280754 37.06396484 82.69165039 C42.5505896 71.34370455 44.86169994 60.48375627 41.41162109 48.11352539 C37.67233146 37.9126181 30.30485809 28.50317981 20.54052734 23.46118164 C2.52762442 16.03622017 -14.38575886 20.200117 -28.83447266 32.81665039 Z M-135.01416016 103.48852539 C-138.50476285 106.5611024 -142.09745761 109.46801038 -145.77197266 112.31665039 C-155.89465762 120.17452112 -165.84908528 128.23317057 -175.58447266 136.56665039 C-179.53972646 139.95160898 -183.57761913 143.16794839 -187.77197266 146.25415039 C-193.03183919 150.12764151 -197.96963872 154.28257796 -202.88476562 158.57714844 C-205.95801738 161.25214327 -209.04056738 163.74687499 -212.39697266 166.06665039 C-218.02655669 170.18938645 -221.18032712 175.97669073 -222.55322266 182.76196289 C-224.1434835 194.37970183 -220.88924408 205.73084214 -214.10400391 215.24243164 C-211.51087381 218.18369281 -208.65645298 220.40226987 -205.45947266 222.62915039 C-204.84297852 223.06437012 -204.22648437 223.49958984 -203.59130859 223.94799805 C-198.44297187 227.52199591 -193.07168627 230.58912471 -187.59228516 233.62915039 C-182.43553873 236.56168818 -177.56671051 239.92974196 -172.65454102 243.24926758 C-167.71174248 246.58328302 -162.71970819 249.80914908 -157.64697266 252.94165039 C-151.70016302 256.61493989 -145.86094935 260.42048419 -140.07617188 264.34399414 C-136.55456086 266.72002085 -132.9928032 268.88379194 -129.27197266 270.94165039 C-123.70201052 274.20007824 -119.88092226 278.67730157 -117.83447266 284.81665039 C-117.39474372 290.42319431 -118.01198927 294.96707885 -120.83447266 299.81665039 C-126.15126963 304.95506462 -132.77845912 307.93281279 -139.45947266 310.87915039 C-140.49434814 311.34466309 -141.52922363 311.81017578 -142.59545898 312.28979492 C-150.24922125 315.71577009 -157.94369224 319.04929118 -165.64022827 322.37780762 C-167.5266369 323.19366764 -169.41265244 324.01043041 -171.29858398 324.82739258 C-172.56835385 325.37721002 -173.83812927 325.92701465 -175.10791016 326.47680664 C-175.73898178 326.75019867 -176.37005341 327.0235907 -177.02024841 327.30526733 C-180.29370035 328.72214118 -183.56988136 330.1321439 -186.85107422 331.53100586 C-190.15960485 332.94210185 -193.46032745 334.3702334 -196.75674438 335.80938721 C-198.58503337 336.60228826 -200.42095508 337.37751736 -202.25708008 338.15209961 C-209.45700164 341.31253779 -215.59101555 344.84478005 -220.83447266 350.81665039 C-222.43103084 355.60632495 -222.13611877 360.10732239 -221.27197266 365.00415039 C-219.308679 368.84537711 -216.78975077 371.08707756 -212.83447266 372.81665039 C-206.89236642 374.04056517 -203.38876369 373.78732775 -197.64697266 371.50415039 C-196.96465576 371.23417236 -196.28233887 370.96419434 -195.5793457 370.68603516 C-189.09150791 368.05504601 -182.79331815 365.01877089 -176.49389648 361.97021484 C-158.63252135 353.33209108 -140.40628701 345.46787054 -122.1913147 337.61038208 C-119.78840912 336.57374127 -117.38594518 335.53608418 -114.98364258 334.49804688 C-114.21064316 334.16404373 -113.43764374 333.83004059 -112.64122009 333.48591614 C-111.12283925 332.82974801 -109.60449742 332.17348958 -108.0861969 331.51713562 C-104.86142504 330.12329295 -101.63589599 328.73139654 -98.40771484 327.34545898 C-79.38476166 319.62581834 -79.38476166 319.62581834 -65.83447266 304.81665039 C-62.31850179 295.95397899 -62.78824383 286.8478503 -66.47119141 278.13305664 C-70.30416745 271.62029219 -75.294155 267.71087747 -81.39697266 263.44165039 C-82.20126709 262.87003174 -83.00556152 262.29841309 -83.83422852 261.70947266 C-89.07129467 258.0039271 -94.37626931 254.41150417 -99.73681641 250.88696289 C-105.7566974 246.8635872 -111.64601338 242.65246761 -117.54199219 238.45043945 C-119.1017473 237.33884401 -120.66266533 236.22887892 -122.22460938 235.12036133 C-124.6188719 233.41977268 -127.00850307 231.71286302 -129.39697266 230.00415039 C-130.12223145 229.48957275 -130.84749023 228.97499512 -131.59472656 228.44482422 C-146.89404784 217.44898799 -146.89404784 217.44898799 -148.83447266 209.81665039 C-148.94627248 204.33845906 -148.58121453 199.031735 -144.83447266 194.81665039 C-139.56580898 190.72833906 -133.84591111 187.6584213 -127.83447266 184.81665039 C-128.9167866 181.07774769 -130.3466979 177.83476626 -132.20947266 174.44165039 C-138.40488489 162.179514 -141.59677084 146.37261476 -137.70947266 132.94165039 C-133.81442583 123.34829432 -127.56804356 115.72453526 -117.93994141 111.56665039 C-114.92647386 110.5144512 -111.92234193 109.62306245 -108.83447266 108.81665039 C-107.97595703 108.59106445 -107.11744141 108.36547852 -106.23291016 108.13305664 C-100.28353619 106.76375628 -93.9058184 105.87715762 -87.83447266 106.81665039 C-84.62520297 109.16106121 -84.19629593 111.74088516 -83.45947266 115.58618164 C-84.07580012 119.25204601 -85.98399227 121.59109227 -88.83447266 123.81665039 C-92.06721742 125.11961872 -95.35632869 125.78489146 -98.77197266 126.44165039 C-107.50809559 128.20549087 -113.59510511 130.0546244 -118.83447266 137.81665039 C-122.00087668 145.46879344 -119.23949449 155.34455967 -116.83447266 162.81665039 C-113.23645626 170.82040116 -106.99943851 175.11257109 -99.83447266 179.81665039 C-98.95146484 180.40575195 -98.06845703 180.99485352 -97.15869141 181.60180664 C-95.23699329 182.88203269 -93.3122823 184.15774299 -91.38525391 185.42993164 C-86.01824147 189.00846197 -80.76181478 192.74850165 -75.48364258 196.45605469 C-69.4242951 200.71019899 -63.34254808 204.92926191 -57.23022461 209.10693359 C-53.54194101 211.63009689 -49.89825189 214.20463873 -46.27197266 216.81665039 C-40.40729424 220.90623384 -35.24655684 223.85694291 -27.83447266 222.81665039 C-23.90515505 221.05172585 -20.78290962 218.82436466 -17.83447266 215.69165039 C-16.20014447 210.99295686 -15.90893694 206.71370133 -16.83447266 201.81665039 C-22.63349606 190.83006524 -37.60056981 183.49985713 -47.77905273 176.9777832 C-48.52050537 176.49535156 -49.26195801 176.01291992 -50.02587891 175.51586914 C-50.68789307 175.09136475 -51.34990723 174.66686035 -52.03198242 174.22949219 C-55.08710039 171.83480606 -56.61165566 169.48510137 -57.83447266 165.81665039 C-58.1949752 160.31898653 -58.26454141 156.3900754 -54.83447266 151.81665039 C-49.91149405 148.82945379 -44.37958731 147.23242434 -38.83447266 145.81665039 C-38.32749449 127.84934401 -44.60544254 110.11743821 -56.83447266 96.81665039 C-65.96428666 87.3615461 -78.35495343 83.13161029 -91.27197266 82.50415039 C-109.63632107 82.78409473 -121.80677403 91.79583949 -135.01416016 103.48852539 Z " fill="#F1A167" transform="translate(430.83447265625,-0.816650390625)"/>
<path d="M0 0 C0.69867188 0.40331543 1.39734375 0.80663086 2.1171875 1.22216797 C7.30635441 4.25815845 12.31811285 7.52174708 17.28662109 10.90356445 C23.30411476 14.98481274 29.45542496 18.84105704 35.625 22.6875 C36.66374268 23.33662354 37.70248535 23.98574707 38.77270508 24.65454102 C43.07769731 27.33800788 47.38425072 30.01270228 51.75390625 32.58984375 C62.77919425 39.12474141 62.77919425 39.12474141 65.5 44.0625 C66.39959136 48.74370687 66.16768161 51.95737182 63.6875 56.0625 C60.66002434 58.83047774 57.69963832 59.55476278 53.6171875 59.453125 C45.35725742 57.92915266 37.62323462 51.27240484 30.67651367 46.72753906 C24.31579379 42.56677261 17.88669304 38.52202847 11.4375 34.5 C10.41317871 33.8594165 9.38885742 33.21883301 8.33349609 32.55883789 C3.79064028 29.72127902 -0.75801818 26.89672296 -5.34375 24.12890625 C-20.50132886 14.94836572 -20.50132886 14.94836572 -23.5 10.0625 C-24.35103518 5.65259041 -23.84392146 3.73760509 -21.8125 -0.25 C-15.30716338 -7.81025607 -7.42344464 -4.39010982 0 0 Z " fill="#F0A067" transform="translate(40.5,181.9375)"/>
<path d="M0 0 C1.05832031 0.63421875 2.11664063 1.2684375 3.20703125 1.921875 C4.10542725 2.45542603 4.10542725 2.45542603 5.02197266 2.99975586 C11.66995713 6.98365211 18.20633978 11.15602164 24.7421875 15.3203125 C29.54477333 18.37808385 34.37097786 21.3968718 39.20263672 24.40844727 C43.24680958 26.92966628 47.285664 29.45934353 51.32470703 31.98876953 C53.71717829 33.48303451 56.11535948 34.96752589 58.515625 36.44921875 C59.76720784 37.23132173 61.0185365 38.0138317 62.26953125 38.796875 C63.82414062 39.75980469 63.82414062 39.75980469 65.41015625 40.7421875 C68.21121879 42.81363195 70.08366775 44.77936101 72.01953125 47.671875 C72.74369083 52.74099206 72.60401691 54.63488432 70.08203125 59.109375 C66.75829094 61.89046383 64.98512433 62.96875131 60.703125 63.14453125 C54.48384963 62.04914214 49.24621307 58.03945233 44.01953125 54.671875 C42.59365201 53.77672497 41.16652499 52.88356005 39.73828125 51.9921875 C36.58238137 50.01613015 33.43672834 48.02488811 30.296875 46.0234375 C25.49428917 42.96566615 20.66808464 39.9468782 15.83642578 36.93530273 C11.79225292 34.41408372 7.7533985 31.88440647 3.71435547 29.35498047 C1.32188421 27.86071549 -1.07629698 26.37622411 -3.4765625 24.89453125 C-4.72814534 24.11242827 -5.979474 23.3299183 -7.23046875 22.546875 C-8.78507812 21.58394531 -8.78507812 21.58394531 -10.37109375 20.6015625 C-13.17215629 18.53011805 -15.04460525 16.56438899 -16.98046875 13.671875 C-17.89256623 7.28719267 -17.89256623 7.28719267 -15.95703125 3.859375 C-11.57655285 -1.66268262 -6.43792429 -2.86879981 0 0 Z " fill="#F0A067" transform="translate(93.98046875,178.328125)"/>
</svg>
