<?xml version="1.0" encoding="UTF-8"?>
<svg version="1.1" xmlns="http://www.w3.org/2000/svg" width="512" height="512">
<path d="M0 0 C0.92554688 0.40089844 1.85109375 0.80179687 2.8046875 1.21484375 C17.61161165 8.45052198 28.05020379 20.9466269 33.4375 36.4375 C38.85211751 53.89539234 36.38558317 70.69321277 28.01953125 86.66796875 C24.93758924 91.75287501 21.24965216 95.86901178 17 100 C16.06220703 100.96873047 16.06220703 100.96873047 15.10546875 101.95703125 C5.00069957 111.72142926 -9.6475026 115.97383644 -23.4375 116.375 C-33.14262946 116.12796034 -42.18997023 113.9812413 -51 110 C-50.74605469 110.92039062 -50.49210937 111.84078125 -50.23046875 112.7890625 C-42.11636045 142.63196267 -42.11636045 142.63196267 -46.5 152.3125 C-48.87591589 154.86660958 -50.63338876 156.04508371 -53.65625 157.66796875 C-54.87538086 158.32768677 -54.87538086 158.32768677 -56.11914062 159.00073242 C-56.73982422 159.33049072 -57.36050781 159.66024902 -58 160 C-57.47156494 160.35191406 -56.94312988 160.70382813 -56.39868164 161.06640625 C-28.28715978 179.85443177 -28.28715978 179.85443177 -23.3515625 194.98828125 C-22.88485649 197.65887675 -22.86816502 200.2274322 -22.875 202.9375 C-22.87242187 203.95714844 -22.86984375 204.97679687 -22.8671875 206.02734375 C-22.99112809 208.80142581 -23.4245093 211.29142188 -24 214 C-23.19780029 214.37286133 -22.39560059 214.74572266 -21.5690918 215.12988281 C-18.58502583 216.52300902 -15.60574021 217.92548534 -12.62915039 219.33447266 C-11.34186793 219.94145231 -10.05281396 220.54469003 -8.76196289 221.14404297 C-6.90288523 222.00803051 -5.05067042 222.88543617 -3.19921875 223.765625 C-2.08377686 224.28930664 -0.96833496 224.81298828 0.1809082 225.35253906 C2.99329827 226.99608355 4.35540391 228.2251845 6 231 C6.84977331 234.91967507 6.60581958 238.05492146 4.4375 241.4375 C1.25925174 243.47483863 -1.26558435 244.27195712 -5 244 C-9.23415289 242.58135794 -13.18290012 240.65233989 -17.1875 238.6875 C-18.26708984 238.17509766 -19.34667969 237.66269531 -20.45898438 237.13476562 C-27.91152266 233.58659873 -27.91152266 233.58659873 -31.1862793 231.82177734 C-33.80222779 230.63651922 -35.28592334 231.17593745 -38 232 C-39.80272998 232.83056291 -41.59374 233.68683857 -43.375 234.5625 C-51.98353924 238.20946736 -61.39580526 238.66998379 -70.25 235.4375 C-81.05163676 230.3181575 -90.68662818 222.77960647 -100.421875 215.921875 C-107.41903316 210.99422809 -114.45256188 206.11902828 -121.48535156 201.24243164 C-122.40799805 200.60168701 -123.33064453 199.96094238 -124.28125 199.30078125 C-125.09658203 198.73528564 -125.91191406 198.16979004 -126.75195312 197.5871582 C-128.2425544 196.53476909 -129.70047264 195.43439496 -131.12011719 194.28808594 C-133.00512407 192.72418708 -133.00512407 192.72418708 -135.796875 193.08984375 C-139.53706888 194.15260616 -142.83876121 195.73763179 -146.25 197.5625 C-152.76174168 201 -152.76174168 201 -155 201 C-151.32503081 205.09749239 -146.91794056 207.90386019 -142.375 210.9375 C-135.10760107 215.84752902 -127.94932125 220.87724101 -120.86083984 226.04150391 C-115.98954885 229.58280777 -111.07487034 233.05367379 -106.12744141 236.48779297 C-75.1927578 257.97132997 -75.1927578 257.97132997 -71 277 C-68.59731362 291.21017374 -71.50192416 305.39861268 -79.75 317.3125 C-85.12244555 323.85932436 -91.62794261 327.97970681 -99.16796875 331.6953125 C-99.86447037 332.04067047 -100.56097198 332.38602844 -101.27857971 332.74185181 C-109.5732928 336.82097357 -117.99914873 340.60478773 -126.4375 344.375 C-128.1768863 345.15508703 -129.91622438 345.93528158 -131.65551758 346.71557617 C-145.84453063 353.07219003 -160.07821042 359.32637292 -174.32177734 365.55957031 C-188.92161727 371.95044563 -203.47334646 378.44458091 -218 385 C-210.7858028 389.93566067 -203.35798654 394.4864021 -195.875 399 C-194.63047813 399.75278446 -193.38609553 400.50579919 -192.1418457 401.2590332 C-189.62542758 402.78228386 -187.10853208 404.30474082 -184.59130859 405.82666016 C-179.45023357 408.93630424 -174.31859747 412.06142809 -169.1875 415.1875 C-167.31252439 416.32946713 -165.43752452 417.47139442 -163.5625 418.61328125 C-162.18578125 419.45173584 -162.18578125 419.45173584 -160.78125 420.30712891 C-157.980025 422.01215824 -155.17766647 423.71531005 -152.375 425.41796875 C-142.33533079 431.51922459 -132.31318017 437.64752184 -122.3125 443.8125 C-110.30796711 451.20991209 -98.27108763 458.55230813 -86.20402527 465.84716797 C-82.71465681 467.95777383 -79.2320506 470.07902888 -75.75447083 472.20899963 C-72.96470224 473.91573002 -70.16924071 475.61310445 -67.375 477.3125 C-66.37460693 477.92875244 -65.37421387 478.54500488 -64.34350586 479.17993164 C-50.04339359 487.84090419 -36.00505836 491.31139153 -19.3515625 488.3515625 C-12.42300531 486.3887509 -6.7702999 483.17696239 -0.66015625 479.43359375 C2.82453118 477.55564913 5.12776676 477.13072315 9 478 C11.875 479.5625 11.875 479.5625 14 482 C15.08732223 485.73767017 15.50769135 487.89564046 13.86328125 491.47265625 C7.20709724 500.50106517 -7.27322073 505.27438927 -17.74609375 507.61328125 C-41.385078 510.42271635 -60.00423537 504.73223024 -80 492.25 C-81.21713175 491.4993349 -82.43483731 490.74959948 -83.65307617 490.00073242 C-86.17766203 488.44787675 -88.69976897 486.89110841 -91.22021484 485.33154297 C-96.64376047 481.9802348 -102.09866232 478.68075705 -107.55230713 475.37875366 C-110.47781626 473.60659853 -113.40095581 471.83054451 -116.32421875 470.0546875 C-121.18270803 467.10375147 -121.18270803 467.10375147 -126.04150391 464.15332031 C-136.94470186 457.53215203 -147.82861093 450.8811125 -158.6875 444.1875 C-170.74991899 436.75260286 -182.85663644 429.39256181 -194.97409058 422.0479126 C-202.46840218 417.50487522 -209.95260148 412.94523983 -217.4375 408.38671875 C-221.16537307 406.11635504 -224.89462682 403.84828463 -228.625 401.58203125 C-238.66466865 395.48077576 -248.68687074 389.35256015 -258.6875 383.1875 C-267.73082861 377.61391722 -276.79251436 372.07193981 -285.875 366.5625 C-286.45492706 366.21070679 -287.03485413 365.85891357 -287.63235474 365.49645996 C-291.75420965 362.99649533 -295.87699887 360.49807369 -300 358 C-304.70897563 355.14689185 -309.41753529 352.29310054 -314.125 349.4375 C-314.70554138 349.08535431 -315.28608276 348.73320862 -315.88421631 348.37039185 C-325.33616448 342.63512356 -334.7609463 336.85651958 -344.1652832 331.04345703 C-349.97925114 327.45460991 -355.81320188 323.90314834 -361.67578125 320.39453125 C-362.96296309 319.62186549 -364.25007305 318.84907999 -365.53710938 318.07617188 C-367.40393053 316.95512122 -369.27196858 315.83652082 -371.14526367 314.72631836 C-372.86763059 313.70554289 -374.58431858 312.67520397 -376.30078125 311.64453125 C-377.28216064 311.06034424 -378.26354004 310.47615723 -379.2746582 309.87426758 C-386.41027426 304.96697344 -386.41027426 304.96697344 -387.62890625 300.90234375 C-387.51072214 297.40548453 -387.27990017 295.36387022 -385.125 292.5625 C-381.55563179 289.93796455 -379.44470475 289.58265683 -375 290 C-372.42483417 291.23418086 -370.15189748 292.48940765 -367.75 294 C-367.02530518 294.44077881 -366.30061035 294.88155762 -365.55395508 295.33569336 C-363.02764078 296.87727504 -360.51410294 298.43859047 -358 300 C-356.03056944 301.21064707 -354.0604862 302.42023285 -352.08984375 303.62890625 C-347.70975914 306.31812816 -343.33425327 309.01462996 -338.9609375 311.71484375 C-331.93178176 316.05178234 -324.87523344 320.34302165 -317.8125 324.625 C-317.22938049 324.97860596 -316.64626099 325.33221191 -316.04547119 325.6965332 C-313.72080115 327.10618642 -311.39605555 328.51571483 -309.07113647 329.92495728 C-295.35435109 338.23993366 -281.64465217 346.56702879 -268 355 C-267.91363281 354.17757813 -267.82726562 353.35515625 -267.73828125 352.5078125 C-266.50171421 342.6833441 -264.05435578 333.6359279 -256.43823242 326.80639648 C-253.46443176 324.60321724 -250.30863736 322.98166524 -246.99609375 321.36328125 C-246.29948639 321.01931808 -245.60287903 320.67535492 -244.88516235 320.32096863 C-235.97217239 315.95628937 -226.92508715 311.8827897 -217.875 307.8125 C-216.9682251 307.40357513 -216.0614502 306.99465027 -215.12719727 306.57333374 C-202.94931106 301.08203486 -190.74884016 295.64376346 -178.5 290.3125 C-177.54598297 289.89552353 -177.54598297 289.89552353 -176.57269287 289.47012329 C-174.81067691 288.70120842 -173.04603834 287.93831154 -171.28125 287.17578125 C-170.30220703 286.75208252 -169.32316406 286.32838379 -168.31445312 285.8918457 C-166 285 -166 285 -164 285 C-167.54077032 281.02244174 -171.69635284 278.51048514 -176.1875 275.75 C-177.90808611 274.67793993 -179.62810975 273.60497677 -181.34765625 272.53125 C-182.72268311 271.67466797 -182.72268311 271.67466797 -184.12548828 270.80078125 C-189.1487585 267.65387781 -194.13578701 264.45052415 -199.125 261.25 C-208.08954957 255.49922365 -208.08954957 255.49922365 -217.07266235 249.77752686 C-218.75600771 248.7092284 -220.43830986 247.63928672 -222.12060547 246.56933594 C-224.21680405 245.23644928 -226.3146606 243.90616469 -228.41455078 242.57910156 C-246.87833309 230.82128599 -246.87833309 230.82128599 -253 224 C-253.46664062 223.525625 -253.93328125 223.05125 -254.4140625 222.5625 C-264.61987494 211.67630007 -268.64485336 197.16328587 -268.2890625 182.52734375 C-266.70096264 163.14823325 -257.6255403 152.75913672 -243.48046875 140.2265625 C-241.24108265 138.2164049 -239.11791381 136.13613062 -237 134 C-253.15376764 126.12512039 -269.33426403 118.33083637 -285.65429688 110.80517578 C-298.17535443 105.02001667 -310.59109912 99.02126575 -323 93 C-323.29003906 93.92296875 -323.58007812 94.8459375 -323.87890625 95.796875 C-325.58419534 100.66912953 -327.68577069 104.12384712 -332 107 C-339 107.66666667 -339 107.66666667 -342.4375 105.375 C-344.36631308 102.44320411 -344.7307957 100.49965595 -345 97 C-344.00390625 93.7890625 -344.00390625 93.7890625 -342.5625 90.625 C-342.08941406 89.56539063 -341.61632812 88.50578125 -341.12890625 87.4140625 C-340.75636719 86.61742188 -340.38382813 85.82078125 -340 85 C-341.20329956 84.43285278 -341.20329956 84.43285278 -342.4309082 83.85424805 C-345.41336225 82.44480461 -348.39296941 81.02966185 -351.37084961 79.6105957 C-352.65882158 78.99827054 -353.94787725 78.38821935 -355.23803711 77.78051758 C-357.09520262 76.90525229 -358.94828251 76.02181036 -360.80078125 75.13671875 C-362.47394409 74.34334106 -362.47394409 74.34334106 -364.1809082 73.53393555 C-366.66088162 72.18452245 -368.29285908 71.2156054 -370 69 C-371.01144763 65.09870199 -371.40409235 62.90920779 -369.75 59.1875 C-368 57 -368 57 -365 55 C-357.04154119 55.0630373 -351.13132921 57.94307839 -344.125 61.5 C-342.08652174 62.51159484 -340.0474848 63.52206488 -338.0078125 64.53125 C-337.11723145 64.98048828 -336.22665039 65.42972656 -335.30908203 65.89257812 C-332.92969528 67.09294084 -332.92969528 67.09294084 -330 68 C-329.731875 67.113125 -329.46375 66.22625 -329.1875 65.3125 C-326.53467272 57.9125081 -326.53467272 57.9125081 -322.6875 55.625 C-319.35395262 54.84975642 -317.28055344 55.02281387 -314 56 C-311.29998036 57.97028461 -310.21418464 59.48343703 -308.9375 62.5625 C-309.03553847 67.95461567 -311.56592707 72.26661249 -314 77 C-313.12359863 77.27674561 -312.24719727 77.55349121 -311.34423828 77.83862305 C-308.25557165 78.91124585 -305.42538448 80.14518017 -302.4921875 81.58203125 C-301.43805664 82.09491699 -300.38392578 82.60780273 -299.29785156 83.13623047 C-298.16831055 83.68939941 -297.03876953 84.24256836 -295.875 84.8125 C-293.43113719 86.00169737 -290.98544743 87.18709443 -288.5390625 88.37109375 C-287.60012146 88.82569977 -287.60012146 88.82569977 -286.64221191 89.28948975 C-279.07967018 92.94145316 -271.44956779 96.44682516 -263.81762695 99.95092773 C-257.33694281 102.94058432 -250.9104946 106.01154945 -244.51953125 109.1875 C-243.0954177 109.89151992 -241.67126435 110.59545933 -240.24707031 111.29931641 C-237.50286333 112.65632175 -234.76849665 114.03101453 -232.03808594 115.41552734 C-230.78744077 116.03549969 -229.53648002 116.65483597 -228.28515625 117.2734375 C-227.19082275 117.82435059 -226.09648926 118.37526367 -224.96899414 118.94287109 C-221.69275928 120.10939498 -220.24654343 120.14069618 -217 119 C-214.89656978 117.43183057 -212.99915509 115.87585055 -211.0625 114.125 C-209.90949645 113.1149636 -208.75448176 112.10721923 -207.59765625 111.1015625 C-207.00484863 110.5849707 -206.41204102 110.06837891 -205.80126953 109.53613281 C-202.94048015 107.0964355 -199.97374462 104.79953531 -197 102.5 C-192.32713375 98.87030589 -187.75139039 95.1528796 -183.25 91.3125 C-177.91405739 86.76665525 -172.55930222 82.27197117 -167 78 C-166.47825195 77.59894043 -165.95650391 77.19788086 -165.41894531 76.78466797 C-148.38942472 63.81845192 -130.62047372 56.90754643 -109 59 C-100.16811789 60.35740668 -92.0736014 63.23624473 -84 67 C-84.01571045 66.42668945 -84.0314209 65.85337891 -84.04760742 65.26269531 C-84.52032209 45.372777 -82.3964699 29.08751566 -68.17211914 14.09350586 C-50.62262822 -3.73535037 -23.38519336 -10.38980039 0 0 Z M-58.46484375 30.92578125 C-65.61210019 40.58276133 -66.93210687 51.22916327 -66 63 C-64.02751473 73.39924195 -58.47119161 82.66102685 -50.25 89.375 C-39.85704077 96.36441703 -28.38453865 99.34936514 -15.9375 97.4375 C-4.29977018 94.56585238 5.51308933 88.32379612 11.81640625 78.03515625 C17.77047362 66.65786608 19.87331764 56.08277331 16.5 43.5 C12.65859829 32.15101671 5.17784727 23.29928626 -5.4296875 17.72265625 C-24.90727551 8.75019358 -44.96504464 14.78137457 -58.46484375 30.92578125 Z M-136 80 C-136.77214844 80.28230469 -137.54429687 80.56460938 -138.33984375 80.85546875 C-146.54243946 84.4176609 -153.12462651 90.54760751 -159.90332031 96.24609375 C-163.23795893 99.03557254 -166.62019371 101.76558803 -170 104.5 C-171.33358245 105.58302665 -172.6669154 106.6663606 -174 107.75 C-176.66666667 109.91666667 -179.33333333 112.08333333 -182 114.25 C-182.66016113 114.78641113 -183.32032227 115.32282227 -184.00048828 115.87548828 C-185.33207451 116.95734112 -186.66378 118.03904718 -187.99560547 119.12060547 C-191.35666941 121.85039108 -194.71553619 124.58280217 -198.0703125 127.3203125 C-204.37653156 132.46182852 -210.70169308 137.56779867 -217.125 142.5625 C-223.77544435 147.73887189 -230.15453101 153.20593897 -236.51098633 158.73681641 C-237.88542715 159.90280375 -239.30825948 161.01109769 -240.734375 162.11328125 C-246.18782925 166.65469229 -249.10644279 173.03770005 -250 180 C-251.0415906 192.36888834 -247.70500084 202.26581955 -240 212 C-233.40910165 218.71667886 -224.89781994 223.22540508 -216.88671875 228.03125 C-211.99889582 230.9766394 -207.21126896 234.061476 -202.4375 237.1875 C-195.84967055 241.49932136 -189.24060626 245.77400898 -182.60058594 250.00512695 C-179.41048499 252.03986663 -176.22616186 254.08338062 -173.04296875 256.12890625 C-169.22831628 258.58018825 -165.39845938 261.00330332 -161.55078125 263.40234375 C-159.92922593 264.43417082 -158.30810246 265.466677 -156.6875 266.5 C-155.59477783 267.1652771 -155.59477783 267.1652771 -154.47998047 267.84399414 C-149.55425937 271.02694087 -146.87811954 274.40422806 -145 280 C-144.12989356 285.19967943 -144.94670308 289.47681008 -147.57723999 294.06741333 C-151.59782797 299.52872422 -159.19831716 302.17039301 -165.2734375 304.7578125 C-166.45157013 305.269384 -166.45157013 305.269384 -167.65350342 305.79129028 C-169.34472746 306.5252664 -171.03710593 307.25658725 -172.73052979 307.98547363 C-177.29097695 309.95061196 -181.83988772 311.94219353 -186.390625 313.9296875 C-187.33515533 314.34162354 -188.27968567 314.75355957 -189.25283813 315.17797852 C-198.97151941 319.41808236 -208.67783935 323.68487612 -218.35675049 328.01507568 C-220.18934563 328.83260181 -222.02392328 329.64569953 -223.86053467 330.4541626 C-226.4356603 331.58836769 -229.00356212 332.73761574 -231.5703125 333.890625 C-232.69901764 334.38189377 -232.69901764 334.38189377 -233.8505249 334.88308716 C-239.59887906 337.49599767 -244.97768745 340.83464122 -248.4375 346.25 C-249.6099071 351.98176802 -249.94868968 357.02964451 -247.375 362.375 C-243.40511609 366.76276643 -239.43695941 369.7568267 -233.34838867 370.22216797 C-222.96228441 369.23959651 -211.71008116 362.25977919 -202.26980591 357.95986938 C-197.8648104 355.95409705 -193.45404432 353.96110814 -189.04296875 351.96875 C-188.13207993 351.55720169 -187.2211911 351.14565338 -186.28269958 350.72163391 C-177.42858852 346.72866656 -168.53589461 342.82588569 -159.6355896 338.93722534 C-152.08512408 335.63683506 -144.54120362 332.32149227 -137 329 C-136.19236206 328.64427917 -135.38472412 328.28855835 -134.5526123 327.92205811 C-129.89018712 325.8659743 -125.23368325 323.79730443 -120.58468628 321.71102905 C-119.17751117 321.08121124 -117.76880475 320.45480119 -116.35842896 319.83218384 C-104.71400154 314.68642862 -95.34360076 310.10168407 -90 298 C-87.1514586 289.16448 -87.97763131 281.34982783 -91.5625 272.875 C-96.09391393 264.75648838 -104.98659665 259.37416344 -112.5 254.25 C-114.26716493 253.02898999 -116.03408806 251.80762997 -117.80078125 250.5859375 C-118.67557129 249.98362305 -119.55036133 249.38130859 -120.45166016 248.76074219 C-124.21638797 246.1595526 -127.95307749 243.51943164 -131.6875 240.875 C-133.07021892 239.89700309 -134.45303117 238.91913814 -135.8359375 237.94140625 C-136.5175293 237.45945801 -137.19912109 236.97750977 -137.90136719 236.48095703 C-140.06958062 234.95089855 -142.24139794 233.426074 -144.4140625 231.90234375 C-150.91610195 227.33914384 -157.40568477 222.75875776 -163.8125 218.0625 C-164.72644531 217.39347656 -165.64039063 216.72445312 -166.58203125 216.03515625 C-170.60493782 212.64915573 -173.66820917 209.34981125 -174.203125 203.94921875 C-174.30867738 198.85631656 -173.93666985 195.35437254 -171 191 C-167.21643908 187.60713287 -163.22400481 185.42714855 -158.6875 183.25 C-158.04232422 182.93417969 -157.39714844 182.61835938 -156.73242188 182.29296875 C-155.15765541 181.52308292 -153.5791996 180.76075109 -152 180 C-153.06042869 177.82864601 -154.16413444 175.71393711 -155.3671875 173.6171875 C-162.43703918 160.75958159 -167.12664625 143.18940212 -163.08203125 128.71484375 C-159.37444241 119.03191755 -154.18656243 112.76780919 -145 108 C-141.78032216 106.80657096 -138.52981072 105.96406096 -135.1875 105.1875 C-134.31037354 104.97810791 -133.43324707 104.76871582 -132.52954102 104.55297852 C-119.20279601 101.52366845 -119.20279601 101.52366845 -114 103 C-111.47350722 105.62236416 -111.02445799 106.80433605 -110.5625 110.5 C-111.08723272 114.69786178 -111.7167497 115.44345637 -115 118 C-117.60521608 118.84562751 -120.02593759 119.50317944 -122.6875 120.0625 C-124.12546066 120.39776992 -125.56296612 120.73499844 -127 121.07421875 C-127.68964844 121.23325684 -128.37929688 121.39229492 -129.08984375 121.55615234 C-136.46561601 123.27000127 -140.67445125 124.57721549 -145 131 C-149.44691834 138.88817317 -146.52994676 148.75918818 -144.29296875 157.04296875 C-141.06513494 167.66350369 -131.22297449 172.54440891 -122.44580078 178.36181641 C-117.89932923 181.40701746 -113.42370014 184.55450936 -108.9375 187.6875 C-106.97540364 189.05359115 -105.01316203 190.4194737 -103.05078125 191.78515625 C-98.94313184 194.64587646 -94.83662015 197.50822391 -90.73046875 200.37109375 C-89.70767822 201.08370361 -88.6848877 201.79631348 -87.63110352 202.53051758 C-85.68703244 203.88503604 -83.74347499 205.24029211 -81.80053711 206.59643555 C-77.55675374 209.55268844 -73.30407644 212.49575333 -69.0234375 215.3984375 C-68.31880371 215.87716309 -67.61416992 216.35588867 -66.88818359 216.84912109 C-62.81054374 219.33450955 -58.64241887 219.58754321 -54 219 C-49.6049297 217.60915497 -46.66157169 215.7294252 -43.5625 212.3125 C-40.96427066 206.80425379 -40.40865512 202.28653354 -41.9375 196.375 C-46.47243461 188.9541979 -54.25711613 184.25267112 -61.375 179.5 C-63.04824162 178.36598063 -64.72141929 177.23186691 -66.39453125 176.09765625 C-69.05337815 174.30583638 -71.71730435 172.52211208 -74.38671875 170.74609375 C-75.26972656 170.14925781 -76.15273438 169.55242187 -77.0625 168.9375 C-77.79597656 168.45152344 -78.52945313 167.96554688 -79.28515625 167.46484375 C-81.9987549 165.14684946 -82.88140073 163.08832271 -83.265625 159.5625 C-83.26046875 158.716875 -83.2553125 157.87125 -83.25 157 C-83.25773437 155.7315625 -83.25773437 155.7315625 -83.265625 154.4375 C-82.9705504 151.72975664 -82.54983627 150.24072714 -81 148 C-77.29650634 145.23060243 -73.67390371 144.26416139 -69.1875 143.3125 C-68.02605469 143.06113281 -66.86460937 142.80976563 -65.66796875 142.55078125 C-64.78753906 142.36902344 -63.90710938 142.18726563 -63 142 C-64.22739714 122.66849506 -69.42553944 103.48137602 -84 90 C-84.845625 89.195625 -85.69125 88.39125 -86.5625 87.5625 C-100.54791686 76.17231514 -119.2798207 73.79694112 -136 80 Z " fill="#000000" transform="translate(457,4)"/>
<path d="M0 0 C2.97265625 1.2578125 2.97265625 1.2578125 6.0625 3.125 C6.94252686 3.65081665 6.94252686 3.65081665 7.84033203 4.18725586 C9.90805805 5.43603626 11.95526628 6.71392109 14 8 C14.7935791 8.49870605 15.5871582 8.99741211 16.40478516 9.51123047 C20.96331964 12.38658692 25.50619535 15.28576763 30.04296875 18.1953125 C37.19690068 22.77735175 44.40566156 27.27054062 51.61669922 31.76196289 C53.48275251 32.92498921 55.34674249 34.09133363 57.20849609 35.26123047 C59.14283354 36.4660889 61.08945314 37.65136616 63.04541016 38.82080078 C64.02687012 39.41747559 65.00833008 40.01415039 66.01953125 40.62890625 C66.90358643 41.15685791 67.7876416 41.68480957 68.69848633 42.22875977 C71.32740494 44.25197018 72.58930507 46.0091407 74 49 C73.93249957 52.84752461 73.51858903 55.19100111 71.4375 58.4375 C67.99761522 60.64255434 64.92563919 60.64020205 61 60 C57.7313362 58.63673968 54.84408712 56.79405139 51.875 54.875 C51.01100586 54.33657471 50.14701172 53.79814941 49.25683594 53.2434082 C46.49254817 51.51386596 43.74563793 49.75896966 41 48 C39.21667496 46.87025807 37.4328242 45.74134557 35.6484375 44.61328125 C32.01210544 42.30960005 28.38492998 39.99222055 24.76171875 37.66796875 C20.7029058 35.07153774 16.62014961 32.51816461 12.51953125 29.98828125 C11.44219727 29.32223877 10.36486328 28.65619629 9.25488281 27.9699707 C7.18303287 26.69146373 5.10831947 25.41758111 3.03027344 24.14916992 C-11.39224452 15.23385536 -11.39224452 15.23385536 -12.56591797 10.91992188 C-12.92630963 7.0387809 -12.16742784 5.24353141 -9.9375 2 C-6.23536833 -0.52060028 -4.41979622 -0.3831113 0 0 Z " fill="#000000" transform="translate(31,179)"/>
<path d="M0 0 C3.28087634 1.44382573 6.23512575 3.32035048 9.25 5.25 C10.12624023 5.79358154 11.00248047 6.33716309 11.90527344 6.8972168 C14.61355421 8.58272044 17.3075363 10.28937083 20 12 C21.56196345 12.98132329 23.12443979 13.96183083 24.6875 14.94140625 C27.76905512 16.87734794 30.84354222 18.82395268 33.9140625 20.77734375 C40.79379124 25.14823728 47.71836016 29.447736 54.64160156 33.74926758 C57.43424925 35.48937793 60.21785453 37.24316233 63 39 C63.87398438 39.53971436 64.74796875 40.07942871 65.6484375 40.63549805 C66.45796875 41.14894775 67.2675 41.66239746 68.1015625 42.19140625 C69.17011475 42.85958374 69.17011475 42.85958374 70.26025391 43.54125977 C72.31431097 45.26354309 72.96564326 46.51437652 73.75 49.0625 C74.02191276 53.34512598 73.74617387 54.78034788 71 58 C67.16460756 60.55692829 65.57046024 60.5323026 61 60 C57.71912366 58.55617427 54.76487425 56.67964952 51.75 54.75 C50.87375977 54.20641846 49.99751953 53.66283691 49.09472656 53.1027832 C46.38644579 51.41727956 43.6924637 49.71062917 41 48 C39.43803655 47.01867671 37.87556021 46.03816917 36.3125 45.05859375 C33.23094488 43.12265206 30.15645778 41.17604732 27.0859375 39.22265625 C20.20620876 34.85176272 13.28163984 30.552264 6.35839844 26.25073242 C3.56575075 24.51062207 0.78214547 22.75683767 -2 21 C-2.87398437 20.46028564 -3.74796875 19.92057129 -4.6484375 19.36450195 C-5.45796875 18.85105225 -6.2675 18.33760254 -7.1015625 17.80859375 C-7.81393066 17.36314209 -8.52629883 16.91769043 -9.26025391 16.45874023 C-11.31431097 14.73645691 -11.96564326 13.48562348 -12.75 10.9375 C-13.02191276 6.65487402 -12.74617387 5.21965212 -10 2 C-6.16460756 -0.55692829 -4.57046024 -0.5323026 0 0 Z " fill="#000000" transform="translate(91,179)"/>
</svg>
