<?xml version="1.0" encoding="UTF-8"?>
<svg version="1.1" xmlns="http://www.w3.org/2000/svg" width="512" height="512">
<path d="M0 0 C0.78299973 -0.0065712 1.56599945 -0.0131424 2.37272644 -0.01991272 C4.94941322 -0.03953056 7.526042 -0.05128302 10.1027832 -0.0612793 C10.98822123 -0.06535482 11.87365925 -0.06943035 12.78592873 -0.07362938 C17.47349433 -0.09444194 22.16103109 -0.10876392 26.84863281 -0.11816406 C31.66565604 -0.12921344 36.48221546 -0.16361023 41.29907513 -0.20333576 C45.02509869 -0.22960109 48.75101337 -0.2378647 52.47712135 -0.24144554 C54.25156598 -0.24628652 56.02600656 -0.25782863 57.80035973 -0.27648354 C72.21805055 -0.41863676 83.43860781 1.16193453 94.52856445 11.30200195 C102.20958447 19.20442609 104.30805157 28.35835297 104.17700195 39.05200195 C103.49413392 49.16856544 98.99834917 57.73687253 91.52856445 64.55200195 C87.95043634 67.41450444 83.6808523 70.17700195 78.96606445 70.17700195 C78.96606445 77.76700195 78.96606445 85.35700195 78.96606445 93.17700195 C82.26606445 93.83700195 85.56606445 94.49700195 88.96606445 95.17700195 C113.35513781 102.07743551 136.12629832 113.402527 155.96606445 129.17700195 C156.84907227 129.85633789 157.73208008 130.53567383 158.6418457 131.2355957 C163.43795923 134.96914083 167.8122484 138.88761765 172.0402832 143.2512207 C173.91980995 145.13074745 175.8712461 146.84036499 177.90356445 148.55200195 C207.36093696 174.11985731 228.95062518 216.7249357 233.96606445 255.17700195 C234.2613694 260.30777967 234.29664434 265.43370532 234.30200195 270.5715332 C234.30845491 272.05010598 234.31518496 273.52867758 234.32217407 275.00724792 C234.334082 278.09763534 234.33786223 281.18791161 234.33666992 284.27832031 C234.3365083 287.39965215 234.35025753 290.52039135 234.37768555 293.64160156 C234.53252852 311.5243975 234.24287659 328.68969089 229.96606445 346.17700195 C229.77627518 346.98125107 229.5864859 347.78550018 229.39094543 348.61412048 C224.43536525 369.50734882 215.75092752 392.00429424 199.96606445 407.17700195 C196.51712053 408.90147391 192.744497 408.54371291 188.96606445 408.17700195 C185.30462917 406.58507357 182.80216355 404.75256335 180.96606445 401.17700195 C180.4776551 395.04909266 181.4812738 391.0784438 184.46606445 385.67700195 C185.20318378 384.27082542 185.94015888 382.86457327 186.67700195 381.45825195 C187.24692871 380.3928418 187.24692871 380.3928418 187.82836914 379.3059082 C211.49546461 335.01898278 216.2044998 285.82904734 202.17993164 237.46606445 C198.57147357 225.81528247 193.87678235 214.83754985 187.96606445 204.17700195 C187.60754395 203.52860352 187.24902344 202.88020508 186.87963867 202.2121582 C181.99164735 193.48591652 176.53652333 185.74617058 169.96606445 178.17700195 C169.01463217 177.03300594 168.06553069 175.88706862 167.1184082 174.73950195 C160.90102677 167.25696748 154.44572824 160.43952991 146.96606445 154.17700195 C145.5603418 152.98204102 145.5603418 152.98204102 144.1262207 151.76293945 C109.91694324 124.02568746 61.28246252 109.57173181 17.50268555 113.98876953 C4.64855733 115.40443457 -7.65763064 117.39520486 -20.03393555 121.17700195 C-21.14236816 121.51538086 -21.14236816 121.51538086 -22.27319336 121.8605957 C-33.08100104 125.24790329 -43.066992 129.83286816 -53.03393555 135.17700195 C-53.7084375 135.53165527 -54.38293945 135.88630859 -55.07788086 136.25170898 C-64.81424934 141.38790906 -73.57632964 147.1356697 -82.03393555 154.17700195 C-82.63012695 154.67167969 -83.22631836 155.16635742 -83.84057617 155.67602539 C-117.88736221 184.07211448 -140.37262864 224.42334611 -145.6472168 268.7590332 C-147.37513936 288.35756629 -147.79579176 310.01498698 -143.03393555 329.17700195 C-142.82994141 330.01150879 -142.62594727 330.84601563 -142.41577148 331.70581055 C-136.41894552 355.57527283 -126.62318645 379.90830052 -111.03393555 399.17700195 C-110.40100586 399.99813477 -109.76807617 400.81926758 -109.1159668 401.6652832 C-104.6725134 407.36815852 -99.89625051 412.67237886 -94.94018555 417.92700195 C-93.03393555 420.17700195 -93.03393555 420.17700195 -93.03393555 422.17700195 C-92.43967773 422.44770508 -91.84541992 422.7184082 -91.2331543 422.99731445 C-89.05338243 424.16657041 -87.62722174 425.35158379 -85.84643555 427.05200195 C-58.12029111 451.57897588 -23.31879179 464.5183991 12.96606445 469.17700195 C13.99602539 469.30977539 15.02598633 469.44254883 16.0871582 469.5793457 C54.88540675 473.596753 90.96976598 463.50844792 124.84106445 445.07543945 C125.46231201 444.74535889 126.08355957 444.41527832 126.72363281 444.07519531 C128.41732793 443.17370873 130.1003249 442.2522036 131.7824707 441.3293457 C135.66716995 439.92322757 137.99073439 440.16656603 141.96606445 441.17700195 C145.87529623 444.47813101 148.79456105 447.32476516 149.27856445 452.55200195 C148.73955199 458.80454655 145.69258597 461.69895842 141.11376953 465.56054688 C137.1333819 468.55635755 132.7640439 470.78369272 128.34106445 473.05200195 C126.83394897 473.83027344 126.83394897 473.83027344 125.29638672 474.62426758 C115.46151741 479.59988988 105.39453738 483.63440168 94.96606445 487.17700195 C93.19489258 487.78801758 93.19489258 487.78801758 91.38793945 488.41137695 C42.3144508 503.82092653 -15.34079532 497.77716299 -60.78588867 474.35961914 C-81.09043443 463.67812265 -98.71582741 450.26187086 -115.03393555 434.17700195 C-116.23391501 433.0149843 -117.43442314 431.8535123 -118.63549805 430.69262695 C-124.94443906 424.54607135 -130.76218711 418.25491688 -136.03393555 411.17700195 C-136.68749023 410.31719727 -137.34104492 409.45739258 -138.0144043 408.5715332 C-158.33867811 381.32835767 -158.33867811 381.32835767 -158.03393555 365.17700195 C-158.85684082 365.24628906 -159.67974609 365.31557617 -160.52758789 365.38696289 C-173.28975288 366.32907989 -186.04444892 366.39742571 -198.8371582 366.41723633 C-202.68551241 366.42706986 -206.53335938 366.45824331 -210.3815918 366.48950195 C-212.84122409 366.49602209 -215.30086013 366.50127643 -217.76049805 366.50512695 C-218.9042691 366.51747375 -220.04804016 366.52982056 -221.22647095 366.5425415 C-226.87794922 366.52667658 -231.22072592 366.50687058 -236.03393555 363.17700195 C-239.0049134 359.81510596 -239.95345535 357.6840272 -240.65893555 353.23950195 C-240.37253788 349.16837284 -239.02709942 346.63844741 -236.30072021 343.63912964 C-231.19487484 340.3457432 -224.44986077 341.34468195 -218.57299805 341.4934082 C-217.05701997 341.50647612 -215.54101219 341.51643466 -214.0249939 341.52342224 C-210.04906527 341.55005555 -206.07494797 341.61873178 -202.09973145 341.6963501 C-198.03768414 341.76816474 -193.97534195 341.79997227 -189.9128418 341.83520508 C-181.95237829 341.91011201 -173.9933827 342.02946317 -166.03393555 342.17700195 C-166.31108398 340.94723633 -166.58823242 339.7174707 -166.8737793 338.45043945 C-167.23975022 336.81764612 -167.60563086 335.18483254 -167.97143555 333.55200195 C-168.24503906 332.33963867 -168.24503906 332.33963867 -168.52416992 331.1027832 C-169.97328218 324.62129928 -171.17057635 318.47467413 -171.09643555 311.80200195 C-171.08741211 310.74239258 -171.07838867 309.6827832 -171.0690918 308.59106445 C-171.05749023 307.79442383 -171.04588867 306.9977832 -171.03393555 306.17700195 C-171.69393555 306.50700195 -172.35393555 306.83700195 -173.03393555 307.17700195 C-174.48233578 307.29152145 -175.93569748 307.34636233 -177.38842773 307.36987305 C-178.7405838 307.39396744 -178.7405838 307.39396744 -180.12005615 307.41854858 C-184.24954484 307.46302812 -188.37887257 307.50407401 -192.50854492 307.52709961 C-194.68508607 307.54364755 -196.86157314 307.57092206 -199.0378418 307.60913086 C-202.17745126 307.66396912 -205.31578628 307.6857858 -208.45581055 307.70043945 C-209.42476257 307.72310883 -210.3937146 307.7457782 -211.39202881 307.76913452 C-215.89773311 307.75508553 -219.04301186 307.670368 -222.63256836 304.76928711 C-226.34792707 300.75854303 -226.42411652 298.04951448 -226.39331055 292.7277832 C-225.8143352 288.61831691 -224.03478625 286.96350618 -221.03393555 284.17700195 C-218.6601057 282.99008703 -217.14214662 283.02127328 -214.49243164 282.97167969 C-213.55160736 282.95173447 -212.61078308 282.93178925 -211.64144897 282.91123962 C-210.11483139 282.88617088 -210.11483139 282.88617088 -208.55737305 282.8605957 C-207.51698883 282.83981461 -206.47660461 282.81903351 -205.4046936 282.79762268 C-202.07284306 282.73210323 -198.74091204 282.67323104 -195.40893555 282.61450195 C-193.15371881 282.57131902 -190.89851028 282.5277048 -188.64331055 282.48364258 C-183.1069379 282.37641943 -177.57048476 282.27465749 -172.03393555 282.17700195 C-171.95284546 280.50263062 -171.95284546 280.50263062 -171.87011719 278.79443359 C-171.46737128 270.97936644 -171.01905276 263.30187418 -169.47143555 255.61450195 C-169.21426039 254.28790484 -168.95788693 252.96115216 -168.70214844 251.63427734 C-168.48163818 250.49337646 -168.26112793 249.35247559 -168.03393555 248.17700195 C-169.22365967 248.24628906 -170.41338379 248.31557617 -171.63916016 248.38696289 C-189.81692165 249.35218314 -207.99335025 249.39833393 -226.19189453 249.41723633 C-230.73867749 249.42280104 -235.28517297 249.44706703 -239.83186436 249.47520828 C-243.36721157 249.49381575 -246.90248752 249.49903842 -250.43787956 249.5005722 C-252.11596248 249.50358437 -253.79404457 249.51156395 -255.47207832 249.52475739 C-257.80355777 249.54183995 -260.13430346 249.53993702 -262.46582031 249.53344727 C-263.14682297 249.54266205 -263.82782562 249.55187683 -264.52946472 249.56137085 C-270.04535183 249.51335225 -274.11229636 248.09864114 -278.03393555 244.17700195 C-278.31359491 241.66301145 -278.44998863 239.31843997 -278.47143555 236.80200195 C-278.50430664 236.12911133 -278.53717773 235.4562207 -278.57104492 234.76293945 C-278.60732202 231.4122548 -278.36290654 229.56739045 -276.18281555 226.98028564 C-271.53095569 224.31628352 -267.36564278 224.64989972 -262.09326172 224.72290039 C-260.99037811 224.72231628 -259.88749451 224.72173218 -258.75119019 224.72113037 C-255.1094403 224.72391484 -251.46851104 224.7550256 -247.8269043 224.78637695 C-245.30056709 224.79383801 -242.77422409 224.79953158 -240.24787903 224.80352783 C-234.28029087 224.81723464 -228.31305441 224.84875278 -222.3456071 224.88892579 C-215.55001515 224.93367814 -208.75440895 224.95563918 -201.95870626 224.97570753 C-187.98362004 225.01748678 -174.0087939 225.08781707 -160.03393555 225.17700195 C-159.89144882 223.91829788 -159.7489621 222.65959381 -159.60215759 221.36274719 C-159.18584693 217.6851279 -158.24235579 214.81642927 -156.6003418 211.4699707 C-155.87427734 209.97240234 -155.87427734 209.97240234 -155.13354492 208.44458008 C-154.62629883 207.4281543 -154.11905273 206.41172852 -153.59643555 205.36450195 C-153.09305664 204.32874023 -152.58967773 203.29297852 -152.07104492 202.22583008 C-150.2006531 198.40307708 -148.39692726 194.72148952 -146.03393555 191.17700195 C-146.69268677 191.18366379 -147.35143799 191.19032562 -148.03015137 191.19718933 C-154.90864158 191.26374461 -161.78703976 191.30888638 -168.66577148 191.34179688 C-171.23026243 191.35684974 -173.79472778 191.37729656 -176.35913086 191.40332031 C-180.05288017 191.43985662 -183.746288 191.45676389 -187.44018555 191.4699707 C-188.58007935 191.48545456 -189.71997314 191.50093842 -190.89440918 191.51689148 C-197.33165275 191.51824142 -202.2191256 191.02415201 -208.03393555 188.17700195 C-211.14187878 184.83596298 -211.94351257 182.74666672 -212.65893555 178.23950195 C-212.36745623 174.18495146 -211.07088999 171.63484625 -208.35003662 168.64364624 C-203.01900869 165.2678343 -195.88035336 166.30831082 -189.76049805 166.4152832 C-188.15155816 166.4160563 -186.54261273 166.41316452 -184.9336853 166.40678406 C-180.70472008 166.39720644 -176.47698489 166.42578175 -172.24822998 166.46594238 C-165.4883304 166.52744961 -158.72875351 166.5471125 -151.96860886 166.53612328 C-149.61733798 166.54020621 -147.26743603 166.57044235 -144.91641235 166.60310364 C-137.41699696 166.65124531 -131.42909373 166.5663396 -125.03393555 162.17700195 C-122.82851334 159.83188609 -122.82851334 159.83188609 -121.22143555 157.11450195 C-114.19388283 146.80650959 -104.8743094 138.73625338 -95.03393555 131.17700195 C-94.41728027 130.69505371 -93.800625 130.21310547 -93.1652832 129.71655273 C-73.42868876 114.39239799 -40.88504654 93.17700195 -15.03393555 93.17700195 C-15.03393555 85.91700195 -15.03393555 78.65700195 -15.03393555 71.17700195 C-17.01393555 70.51700195 -18.99393555 69.85700195 -21.03393555 69.17700195 C-29.15620246 64.40991446 -36.1822018 57.15133846 -39.3737793 48.2121582 C-41.31061721 39.30728803 -41.49384463 28.79301737 -37.50268555 20.4543457 C-32.91979644 13.34842988 -26.28293583 5.38574848 -18.09643555 2.48950195 C-17.46866211 2.25875977 -16.84088867 2.02801758 -16.1940918 1.7902832 C-10.83521433 0.26886591 -5.53803047 0.02045759 0 0 Z M-14.40893555 29.30200195 C-16.68744904 33.33321814 -17.07544863 36.65606366 -16.03393555 41.17700195 C-13.70874351 45.09848569 -11.39004268 47.72496624 -7.03393555 49.17700195 C-4.59774246 49.29307417 -2.18898879 49.35497086 0.24804688 49.36987305 C0.98665955 49.37805054 1.72527222 49.38622803 2.48626709 49.39465332 C4.93134764 49.41946939 7.37637016 49.43601578 9.8215332 49.45043945 C10.65830408 49.45576313 11.49507496 49.46108681 12.35720253 49.46657181 C16.78841866 49.49329012 21.21960679 49.51266706 25.65087891 49.52709961 C29.31063915 49.54042497 32.96983999 49.56825294 36.62939453 49.60913086 C41.05495958 49.65856126 45.48001825 49.68323354 49.90584755 49.69032669 C51.58789917 49.69702181 53.26994027 49.71219848 54.95183372 49.7362175 C66.39723556 50.13912222 66.39723556 50.13912222 76.63667297 45.64297485 C79.70654 42.25771029 80.51259798 38.84939209 80.42700195 34.27856445 C79.57410327 30.3899247 76.86782947 27.7705484 73.96606445 25.17700195 C70.98732412 23.68763179 67.9409962 24.02099297 64.67407227 24.01586914 C63.92263947 24.01090424 63.17120667 24.00593933 62.39700317 24.00082397 C59.90438936 23.98618787 57.41183923 23.97939701 54.91918945 23.97387695 C53.18764239 23.9681255 51.45609536 23.96236776 49.72454834 23.956604 C46.0895559 23.94608908 42.4545856 23.94025003 38.81958008 23.93676758 C34.16793807 23.93129005 29.51658984 23.90728006 24.86503983 23.87879562 C21.28590042 23.86014299 17.7068313 23.85496219 14.1276474 23.8534317 C12.41328073 23.8504092 10.69891517 23.84239424 8.98459625 23.82924652 C6.58138428 23.8121353 4.17888344 23.81407871 1.77563477 23.82055664 C0.71866898 23.80673447 0.71866898 23.80673447 -0.35964966 23.79263306 C-6.17847773 23.84160966 -10.09539511 25.4425184 -14.40893555 29.30200195 Z M8.96606445 72.17700195 C8.96606445 77.78700195 8.96606445 83.39700195 8.96606445 89.17700195 C24.14606445 89.17700195 39.32606445 89.17700195 54.96606445 89.17700195 C54.96606445 83.56700195 54.96606445 77.95700195 54.96606445 72.17700195 C39.78606445 72.17700195 24.60606445 72.17700195 8.96606445 72.17700195 Z " fill="#F1A067" transform="translate(278.033935546875,7.822998046875)"/>
<path d="M0 0 C1.1190976 0.00323273 1.1190976 0.00323273 2.26080322 0.00653076 C40.36652245 0.1827999 75.5667869 12.83667138 103.75390625 38.94921875 C105.54766121 40.60604585 107.37087493 42.2312777 109.21484375 43.83203125 C136.31203876 67.47411466 153.42074957 104.45287183 157.16015625 140.03222656 C158.5142607 160.30039255 157.59743866 179.63065946 152.3125 199.3125 C152.10383301 200.11751953 151.89516602 200.92253906 151.68017578 201.75195312 C144.87006859 227.21536106 129.90348893 249.10220911 111.75634766 267.81738281 C110.3567667 269.26666144 108.98066731 270.73850268 107.60546875 272.2109375 C87.70738916 293.01215101 61.02542175 304.99643661 33.3125 311.3125 C31.81396484 311.66441406 31.81396484 311.66441406 30.28515625 312.0234375 C-7.99063849 320.36792356 -50.96695438 311.13933265 -83.6875 290.3125 C-92.31420231 284.68814066 -100.26000377 278.45889739 -107.6875 271.3125 C-108.24550293 270.79091309 -108.80350586 270.26932617 -109.37841797 269.73193359 C-137.07664087 243.78648311 -154.76684498 207.7641077 -156.89428711 169.60327148 C-156.9900846 165.7955078 -157.01650642 161.99641508 -157 158.1875 C-156.99817719 157.51507263 -156.99635437 156.84264526 -156.99447632 156.14984131 C-156.81939951 117.57249456 -143.03592279 80.22969699 -116.24609375 52.0234375 C-114.12469308 49.77572442 -112.11160804 47.49023216 -110.125 45.125 C-97.73312554 30.98779111 -81.70586674 20.94762828 -64.6875 13.3125 C-63.77000977 12.89726074 -63.77000977 12.89726074 -62.83398438 12.47363281 C-55.43044666 9.17742832 -47.93654928 6.6673897 -40.125 4.5625 C-39.39434326 4.36374268 -38.66368652 4.16498535 -37.91088867 3.96020508 C-25.36407363 0.75164216 -12.87940779 -0.06722817 0 0 Z M-82.6875 52.3125 C-83.63625 53.05757812 -84.585 53.80265625 -85.5625 54.5703125 C-113.5584637 77.01272905 -128.96171621 109.86509967 -133.390625 145.10546875 C-134.26054068 155.19065744 -133.64174645 165.02286047 -132.0625 175 C-131.88428711 176.12776855 -131.70607422 177.25553711 -131.52246094 178.41748047 C-128.85119846 194.29363862 -123.40424003 208.24388553 -115.6875 222.3125 C-114.93146484 223.69695312 -114.93146484 223.69695312 -114.16015625 225.109375 C-95.63754615 257.33153328 -66.29353192 277.53405292 -31 287.6875 C2.03508937 295.80264152 37.80716431 290.33943276 67.0625 273 C98.15763317 253.87612651 121.0525873 225.90963465 130.1875 190.25 C138.37655762 155.8147301 133.17048779 122.26638495 116.3125 91.3125 C115.735 90.23097656 115.1575 89.14945312 114.5625 88.03515625 C110.53450573 80.790361 105.73974358 74.55981943 100.3125 68.3125 C99.28189453 67.06339844 99.28189453 67.06339844 98.23046875 65.7890625 C83.67409599 48.66709528 63.99056737 38.22591924 43.3125 30.3125 C41.70181641 29.67828125 41.70181641 29.67828125 40.05859375 29.03125 C-0.56643841 14.75027997 -49.51263534 26.14780019 -82.6875 52.3125 Z " fill="#F1A167" transform="translate(309.6875,142.6875)"/>
<path d="M0 0 C4.07871217 2.29381462 7.32321806 4.83640178 8.75390625 9.41015625 C9.10690548 14.26952861 8.2157838 17.34665852 5.0625 21.0625 C3.72900392 22.39599608 2.37327468 23.70750618 1 25 C0.278125 25.7425 -0.44375 26.485 -1.1875 27.25 C-5.23219162 31.40704416 -9.43380509 35.28393663 -13.8359375 39.0546875 C-16.99076164 41.89061245 -19.9444762 44.92067262 -22.91992188 47.94165039 C-25.6438637 50.6917109 -28.42754956 53.30438651 -31.375 55.8125 C-35.73125337 59.54388096 -39.85603155 63.57059842 -42 69 C-42.02475354 71.42403527 -42.02475354 71.42403527 -41.625 74 C-40.38293447 85.65989016 -39.9295429 94.45613098 -47.609375 104 C-54.99227552 111.85703175 -63.12632069 115.90942453 -73.875 116.3125 C-84.08012175 116.04641554 -91.43678263 112.3700501 -98.6875 105.37109375 C-104.1329841 99.50358463 -107.31205883 93.25236835 -107.14453125 85.15234375 C-107.00797985 82.02749357 -106.8107763 78.91419382 -106.58007812 75.79492188 C-106.36365321 70.37742848 -106.43797968 66.90494012 -110.05078125 62.6796875 C-111.33743721 61.42195246 -112.65451505 60.19459249 -114 59 C-114.92727905 58.1169519 -114.92727905 58.1169519 -115.87329102 57.21606445 C-118.29803793 54.92597201 -120.78625916 52.71156397 -123.27734375 50.49414062 C-123.87417969 49.95337891 -124.47101563 49.41261719 -125.0859375 48.85546875 C-125.6226709 48.37746826 -126.1594043 47.89946777 -126.71240234 47.40698242 C-128.86256336 45.05746062 -129.01958684 42.79237949 -129.3125 39.6875 C-128.94227165 35.31880542 -127.74219139 33.36897799 -125 30 C-121.96589663 27.97726442 -121.14629 27.68473731 -117.6875 27.625 C-116.57955078 27.58246094 -116.57955078 27.58246094 -115.44921875 27.5390625 C-109.37324154 28.68254784 -105.07684745 33.65928412 -100.9375 37.9375 C-100.43412109 38.44990234 -99.93074219 38.96230469 -99.41210938 39.49023438 C-97.02865801 41.91685304 -94.65548439 44.3534255 -92.28125 46.7890625 C-89.83387898 49.16100086 -88.32574489 50.26995844 -85 51 C-82.99538701 50.34733531 -80.99620166 49.67795528 -79 49 C-73.44540866 48.5177686 -69.14183442 48.79635668 -64 51 C-55.86283565 50.10464858 -50.48444432 42.55738477 -44.9375 37.0625 C-44.45531006 36.58514404 -43.97312012 36.10778809 -43.47631836 35.6159668 C-40.80352618 32.93056498 -38.26305005 30.17402189 -35.79296875 27.30078125 C-31.21328652 22.02059566 -26.30176711 17.07936804 -21.375 12.125 C-20.43747115 11.16669489 -19.49997099 10.20836171 -18.5625 9.25 C-17.66273438 8.34507812 -16.76296875 7.44015625 -15.8359375 6.5078125 C-15.02688965 5.68941895 -14.2178418 4.87102539 -13.38427734 4.02783203 C-9.3457204 0.59303232 -5.26622245 -0.92933337 0 0 Z M-79 75 C-81.47981752 76.56304526 -81.47981752 76.56304526 -83 79 C-83.4988668 82.91966774 -83.33137174 85.2741381 -81.6875 88.875 C-80.10128715 91.26971972 -80.10128715 91.26971972 -77 92 C-71.91745961 92.52257524 -71.91745961 92.52257524 -67.625 90.125 C-64.72605832 86.33407627 -64.51396011 83.77939224 -65 79 C-69.46991306 73.44281078 -72.41614486 72.1783478 -79 75 Z " fill="#F2A168" transform="translate(384,217)"/>
<path d="M0 0 C3.80018544 1.05966709 6.44788469 3.67603231 9.03125 6.56640625 C10.6508557 9.80561765 10.25748755 13.32345006 10.28125 16.87890625 C10.301875 17.63880859 10.3225 18.39871094 10.34375 19.18164062 C10.38313543 24.84821899 9.21185488 27.87659418 5.609375 32.3203125 C2.52215244 34.75799566 -1.1549041 34.76280031 -4.96875 34.56640625 C-9.33702587 33.30278622 -11.48854286 31.32544334 -13.90625 27.50390625 C-15.9498157 21.60168233 -15.99831872 14.56517098 -13.84375 8.69140625 C-10.48817565 3.09878233 -6.88728768 -0.4105883 0 0 Z " fill="#EC9D65" transform="translate(311.96875,384.43359375)"/>
<path d="M0 0 C3.03910939 2.80533174 3.90394095 4.25897302 4.4375 8.375 C3.93218913 12.56186149 3.16628233 15.36623609 1 19 C-5.21738952 23.38043353 -13.69487076 23.00081059 -21 22 C-25.76814572 19.35969501 -28.25302844 17.24091468 -30 12 C-30.10236722 6.36980277 -28.21995248 3.45526686 -24.66796875 -0.6171875 C-18.45124581 -5.77109832 -6.40663964 -3.87067811 0 0 Z " fill="#EB9D65" transform="translate(425,290)"/>
<path d="M0 0 C4.39624819 2.48483594 6.06538194 5.41886792 8 10 C8.3984375 13.47265625 8.3984375 13.47265625 8.375 17.0625 C8.38273437 18.24972656 8.39046875 19.43695313 8.3984375 20.66015625 C7.82547251 25.46295102 5.70487616 28.9126032 2 32 C-1.72400871 33.24133624 -5.13176 33.54111486 -9 33 C-12.75212276 30.98497111 -14.63644095 29.54533858 -17 26 C-17.44737266 23.07779187 -17.37027908 20.14043639 -17.375 17.1875 C-17.39949219 16.39279297 -17.42398437 15.59808594 -17.44921875 14.77929688 C-17.47597013 9.38889461 -16.67397393 6.20895609 -13 2 C-9.01014576 -0.73364271 -4.67049983 -0.66840785 0 0 Z " fill="#EB9D65" transform="translate(315,181)"/>
<path d="M0 0 C2.63211399 4.21138238 2.4036161 8.69565887 1.5625 13.5 C-0.8715312 16.72344672 -3.09954565 18.2746971 -6.4375 20.5 C-9.10919858 20.72216068 -11.64262871 20.82452645 -14.3125 20.8125 C-15.37404297 20.83666992 -15.37404297 20.83666992 -16.45703125 20.86132812 C-22.40609273 20.86686729 -25.46457216 19.31296072 -29.75 15.375 C-32.09159959 11.3856081 -32.26654485 8.02280902 -31.4375 3.5 C-29.14167773 -0.2208154 -26.67141159 -2.82305709 -22.375 -4.125 C-13.59103988 -5.24635661 -7.59973174 -4.67675799 0 0 Z " fill="#EB9D65" transform="translate(222.4375,291.5)"/>
<path d="M0 0 C3.76115969 2.06495042 7.09650288 4.08725592 9 8 C9.66585396 11.16897161 9.76415851 13.84253948 9 17 C6.59001319 20.38276794 3.72800745 23.13599627 0 25 C-4.856835 25.44153045 -7.97647234 24.79897576 -12 22 C-14.58233657 18.4870917 -15.94678223 15.30383531 -16.125 10.9375 C-14.58229849 6.90933496 -12.19770738 3.88748204 -9 1 C-5.64870516 -0.11709828 -3.51689744 -0.34479387 0 0 Z " fill="#EA9C65" transform="translate(449,423)"/>
<path d="M0 0 C3.41311667 2.52570633 4.66637768 3.99913304 6 8 C6.40109454 12.25160217 6.26378256 14.5006973 4.25 18.3125 C1.66183642 21.40391761 -0.17760309 22.74897216 -4.18359375 23.30078125 C-4.92738281 23.30464844 -5.67117188 23.30851562 -6.4375 23.3125 C-7.54931641 23.33763672 -7.54931641 23.33763672 -8.68359375 23.36328125 C-11.88113598 22.86181173 -13.54920806 22.14922136 -16 20 C-16.52462649 17.11455432 -16.70216571 14.93563669 -16.625 12.0625 C-16.64433594 11.34642578 -16.66367187 10.63035156 -16.68359375 9.89257812 C-16.64906865 6.16732025 -16.30347479 4.34127414 -13.8046875 1.53125 C-9.24725714 -0.95692925 -5.05112408 -0.89494391 0 0 Z " fill="#EB9D65" transform="translate(16,350)"/>
</svg>
