<?xml version="1.0" encoding="UTF-8"?>
<svg version="1.1" xmlns="http://www.w3.org/2000/svg" width="512" height="512">
<path d="M0 0 C0.73138184 0.20367187 1.46276367 0.40734375 2.21630859 0.6171875 C26.19933312 7.60976338 46.57041516 21.35160251 63.33056641 39.65258789 C64.33289307 40.7159436 64.33289307 40.7159436 65.35546875 41.80078125 C65.93965576 42.44184814 66.52384277 43.08291504 67.12573242 43.7434082 C68.97006194 45.27360475 68.97006194 45.27360475 71.46606445 44.71484375 C72.30226318 44.47894531 73.13846191 44.24304688 74 44 C91.25350127 42.54953752 106.80069699 45.81002676 120.6875 56.6875 C130.63803848 65.8505858 138.37947186 79.42394059 139.11328125 93.11328125 C139.12307673 94.74259567 139.06927109 96.37212932 139 98 C140.19625 98.309375 141.3925 98.61875 142.625 98.9375 C161.97586358 105.44863963 177.28941093 122.21206777 186.3125 139.9375 C196.16564963 160.00766679 198.6816611 184.05236802 192.1875 205.609375 C191.795625 206.72828125 191.40375 207.8471875 191 209 C190.649375 210.03640625 190.29875 211.0728125 189.9375 212.140625 C181.56083774 234.36204851 164.42391034 251.40548587 143.078125 261.30859375 C136.92712168 263.97786921 130.55423288 265.62872433 124 267 C122.64648438 267.28810547 122.64648438 267.28810547 121.265625 267.58203125 C116.46870406 268.19599123 111.70646942 268.22460463 106.875 268.25 C105.88628906 268.270625 104.89757812 268.29125 103.87890625 268.3125 C102.92628906 268.31765625 101.97367187 268.3228125 100.9921875 268.328125 C100.12964355 268.3374707 99.26709961 268.34681641 98.37841797 268.35644531 C95.45123296 267.91775817 94.11161459 267.05304081 92 265 C91.12718851 261.57109774 90.67077171 259.10740423 91.6875 255.6875 C93.37833362 253.51357106 94.38974875 252.9721221 97 252 C99.93299981 251.7987157 102.81486817 251.68305499 105.75 251.625 C125.64794844 250.83743218 144.68137384 244.38681009 159 230 C174.37823065 212.40046937 179.4134924 193.62045421 178.22314453 170.73144531 C176.85885991 154.0316462 167.69498782 138.03503727 155.58984375 126.75390625 C147.392215 119.88140925 138.16066741 115.310041 128.3125 111.2734375 C125.62291986 109.79235114 124.46995118 108.69412274 123 106 C122.62890625 103.1875 122.62890625 103.1875 122.5625 100 C121.81674286 87.22173832 117.43070864 77.94192383 108.1875 69.25 C100.87023245 63.09843918 93.09877853 60.85979286 83.6875 60.8125 C82.41261719 60.79832031 81.13773437 60.78414063 79.82421875 60.76953125 C75.92682564 61.00440989 72.73961369 61.93093529 69 63 C65.546875 63.6171875 65.546875 63.6171875 62 63 C59.02754249 60.71409029 56.68485786 57.96319788 54.25 55.125 C52.83086474 53.55091104 51.40899097 51.97928667 49.984375 50.41015625 C49.29923828 49.64719238 48.61410156 48.88422852 47.90820312 48.09814453 C29.99274897 28.39939671 3.48478767 15.68131115 -23 13 C-57.62936325 11.54149338 -90.12038203 18.50509883 -116.3125 42.5625 C-118.22317519 44.36031728 -120.11204669 46.17809753 -122 48 C-122.65742188 48.60585937 -123.31484375 49.21171875 -123.9921875 49.8359375 C-128.66077816 54.24635725 -132.33898644 59.33084866 -136.08203125 64.5234375 C-138 67 -138 67 -140 68 C-145.81802203 68.72725275 -149.23479308 67.1681148 -154.27734375 64.2890625 C-164.96154285 59.23054642 -178.29860174 59.37699308 -189.375 63 C-202.54858544 68.37542854 -210.77325808 76.67190388 -216.91796875 89.2734375 C-218.47325585 93.1925364 -219.28800437 97.1934361 -220.03125 101.3359375 C-221.34834445 104.95794723 -222.65862679 106.07684433 -226 108 C-229.00614827 108.649799 -231.99667941 108.82443901 -235.0625 109 C-253.72822955 110.55459115 -270.97257265 118.56271319 -283.47265625 132.8203125 C-297.46806682 150.7176155 -302.20019126 169.59805267 -300 192 C-299.03233846 197.62039031 -297.21845988 202.76247901 -295 208 C-294.60425781 208.95003906 -294.20851563 209.90007812 -293.80078125 210.87890625 C-290.0713631 218.9944175 -284.53212768 225.94583289 -278 232 C-277.49726563 232.51949219 -276.99453125 233.03898438 -276.4765625 233.57421875 C-262.87922032 246.78561017 -243.6607913 251.31029495 -225.29370117 251.67358398 C-218.06538641 251.83940958 -218.06538641 251.83940958 -215 254 C-212.9184098 256.67633026 -213.00412409 258.11753668 -213.125 261.5625 C-214 265 -214 265 -215.76904297 266.68774414 C-218.27576843 268.16220785 -219.68533455 268.39781979 -222.5703125 268.43359375 C-223.45783203 268.44503418 -224.34535156 268.45647461 -225.25976562 268.46826172 C-226.20529297 268.45811035 -227.15082031 268.44795898 -228.125 268.4375 C-229.10404297 268.42992676 -230.08308594 268.42235352 -231.09179688 268.41455078 C-255.75864807 267.8663096 -277.83977255 257.79154017 -295 240 C-313.77141886 218.52901254 -318.41372967 193.83305602 -317 166 C-314.8961335 145.46335052 -301.54750365 124.99278381 -286.3203125 111.65234375 C-271.40846639 99.87238944 -254.10163574 92.69969362 -235 92 C-234.79375 90.741875 -234.5875 89.48375 -234.375 88.1875 C-230.8567724 72.6830349 -219.03380522 60.30946965 -206 52 C-202.4242135 49.99675826 -198.8514047 48.39702447 -195 47 C-194.12472656 46.68160156 -193.24945313 46.36320312 -192.34765625 46.03515625 C-180.17288708 42.32979172 -165.63653967 42.49886013 -153.5078125 46.24609375 C-152.68023437 46.49488281 -151.85265625 46.74367187 -151 47 C-150.01257813 47.30679688 -149.02515625 47.61359375 -148.0078125 47.9296875 C-144.81689268 48.33219578 -144.81689268 48.33219578 -142.359375 45.82421875 C-141.47150513 44.79395307 -140.6026345 43.74711062 -139.75 42.6875 C-138.78150083 41.56636496 -137.81142132 40.44659335 -136.83984375 39.328125 C-136.36015137 38.76416016 -135.88045898 38.20019531 -135.38623047 37.61914062 C-118.46128811 17.85052179 -94.72973418 5.9002903 -70 -1 C-69.31599121 -1.19352051 -68.63198242 -1.38704102 -67.92724609 -1.58642578 C-46.93622798 -7.18866794 -20.75522531 -5.7934034 0 0 Z " fill="#000000" transform="translate(317,60)"/>
<path d="M0 0 C9.32640273 8.61241975 15.63357997 21.11485724 16.48828125 33.78125 C16.78021221 49.39187411 12.92667168 62.43738447 2 74 C-8.61289751 84.07869126 -21.1507217 88.65823308 -35.69140625 88.4609375 C-49.83673136 87.48539784 -62.15382732 81.7169029 -71.75 71.25 C-80.99603924 59.3674664 -84.97250649 45.73466783 -83.125 30.8125 C-80.73560619 17.47303656 -74.52274171 6.57420667 -64.11328125 -2.1171875 C-44.11583929 -15.93360195 -19.0614299 -14.98593487 0 0 Z M-58.76171875 15.359375 C-66.70143777 25.01354068 -67.85414254 34.02999551 -66.75 46.25 C-65.89659879 49.64914041 -64.63995521 52.31203224 -62.75 55.25 C-62.32589844 55.94480469 -61.90179688 56.63960937 -61.46484375 57.35546875 C-55.77859484 65.79772688 -47.61986442 70.29860524 -37.75 72.25 C-29.39570401 73.2086897 -20.80551208 71.04709437 -13.8671875 66.26171875 C-5.87811456 59.35772885 -0.52613611 52.0533144 0.5390625 41.34375 C0.96549851 31.91726983 -0.91703922 24.22228573 -6.734375 16.67578125 C-13.34937146 9.57990739 -21.12079703 4.986027 -30.85546875 4.046875 C-41.66363804 3.80353911 -51.25012709 7.48314297 -58.76171875 15.359375 Z " fill="#000000" transform="translate(306.75,182.75)"/>
<path d="M0 0 C4.24714159 0.88482117 5.42604787 2.10445263 8 5.625 C8.76032663 9.66253544 8.68989439 13.66050265 8.65942383 17.7590332 C8.66990753 18.98871323 8.68039124 20.21839325 8.69119263 21.4853363 C8.71502858 24.84902241 8.71687382 28.21136534 8.70889878 31.57503533 C8.7057712 35.09318438 8.73081531 38.61113097 8.75285339 42.12919617 C8.79028994 48.78726797 8.80244113 55.44513552 8.8054778 62.10330218 C8.81016908 69.68499251 8.84309453 77.26647829 8.87837565 84.84807837 C8.95030297 100.44037083 8.98682572 116.03254051 9 131.625 C9.60328125 130.99851562 10.2065625 130.37203125 10.828125 129.7265625 C11.62734375 128.90929687 12.4265625 128.09203125 13.25 127.25 C14.03890625 126.43789063 14.8278125 125.62578125 15.640625 124.7890625 C19.10861799 121.60815503 20.82138543 120.5836451 25.5625 120.75 C29 121.625 29 121.625 30.9375 123.25 C32.57677606 126.91426413 32.77812916 128.60466601 32 132.625 C29.86248295 135.73359334 27.29989945 138.35272866 24.62792969 141.00732422 C22.71675039 142.9064655 20.83180348 144.83024519 18.9453125 146.75390625 C16.13188827 149.60590984 13.31465823 152.45377999 10.4765625 155.28125 C9.87924316 155.87744141 9.28192383 156.47363281 8.66650391 157.08789062 C5.26047325 160.22946241 2.7389349 161.175931 -1.91091919 161.04226685 C-5.7759282 160.27028133 -7.99748153 157.72892088 -10.65234375 154.96484375 C-11.23794571 154.38215225 -11.82354767 153.79946075 -12.42689514 153.19911194 C-13.65572004 151.96697886 -14.87471385 150.72497121 -16.08422852 149.47387695 C-17.93229596 147.5678672 -19.81487928 145.70202455 -21.70507812 143.83789062 C-22.89807244 142.63242016 -24.08890446 141.42480513 -25.27734375 140.21484375 C-25.83767807 139.66038071 -26.39801239 139.10591766 -26.97532654 138.53465271 C-30.5839101 134.74819789 -31.83354919 132.04017239 -32 126.625 C-31.2018293 123.940244 -30.47659001 122.9824425 -28.25 121.3125 C-24.94258074 120.30189967 -23.32176871 120.53903715 -20 121.625 C-15.99412206 124.59710299 -12.51601752 128.10216729 -9 131.625 C-8.99918285 130.65785804 -8.99918285 130.65785804 -8.99834919 129.67117786 C-8.98337971 113.98027079 -8.94092656 98.28971495 -8.86790943 82.5989809 C-8.83326101 75.01102295 -8.80790413 67.42324663 -8.80444336 59.83520508 C-8.80140323 53.22118551 -8.78090659 46.60748944 -8.73947543 39.99359483 C-8.7181476 36.49171063 -8.70554332 32.99028628 -8.71384621 29.48833656 C-8.7227896 25.57825321 -8.69275843 21.66899604 -8.65942383 17.7590332 C-8.66804947 16.59881653 -8.67667511 15.43859985 -8.68556213 14.2432251 C-8.57332545 6.40917131 -8.57332545 6.40917131 -5.64628601 2.40568542 C-3 0.625 -3 0.625 0 0 Z " fill="#000000" transform="translate(320,295.375)"/>
<path d="M0 0 C3.1359157 1.77984405 3.84102736 2.52308207 5 6 C5.10154275 7.69986903 5.14626252 9.40338973 5.15821838 11.10624695 C5.1680072 12.1621402 5.17779602 13.21803345 5.18788147 14.30592346 C5.19651466 16.04300819 5.19651466 16.04300819 5.20532227 17.81518555 C5.21522186 19.03481995 5.22512146 20.25445435 5.23532104 21.51104736 C5.26151521 24.85579915 5.28337461 28.20052699 5.30332303 31.54531837 C5.3251893 35.04072117 5.35257485 38.53608057 5.37937927 42.03144836 C5.42929749 48.650569 5.47423955 55.26971374 5.51740164 61.8888815 C5.56678145 69.4245074 5.62169682 76.96008975 5.67708123 84.49567354 C5.7908879 99.99707546 5.89772981 115.49851742 6 131 C6.60328125 130.37351562 7.2065625 129.74703125 7.828125 129.1015625 C8.62734375 128.28429687 9.4265625 127.46703125 10.25 126.625 C11.03890625 125.81289063 11.8278125 125.00078125 12.640625 124.1640625 C14.76106357 122.21915693 16.32222809 120.98829108 19 120 C22.04737897 120.18657422 24.2058182 120.50705957 26.8125 122.125 C28.80833485 125.27631818 29.12294851 127.25007046 29 131 C27.82348633 132.7355957 27.82348633 132.7355957 26.14453125 134.55078125 C25.50483398 135.24727783 24.86513672 135.94377441 24.20605469 136.66137695 C23.47805664 137.43312256 22.75005859 138.20486816 22 139 C21.20239258 139.86262451 20.40478516 140.72524902 19.58300781 141.61401367 C16.94153823 144.44176637 14.25717705 147.22296964 11.5625 150 C11.1099585 150.4842041 10.65741699 150.9684082 10.19116211 151.46728516 C1.6391016 160.60518705 1.6391016 160.60518705 -3.37890625 160.84375 C-7.21096829 159.95084234 -8.75150715 159.24849285 -11.5 156.5 C-12.7375 155.28957031 -12.7375 155.28957031 -14 154.0546875 C-14.69222656 153.34844238 -14.69222656 153.34844238 -15.3984375 152.62792969 C-17.28491812 150.71039115 -19.20425359 148.82851704 -21.125 146.9453125 C-23.97877933 144.13233788 -26.82828064 141.31550361 -29.65625 138.4765625 C-30.25244141 137.87924316 -30.84863281 137.28192383 -31.46289062 136.66650391 C-34.00239323 133.91322488 -34.96916455 132.33918992 -35.3125 128.5625 C-35 125 -35 125 -33.9375 122.625 C-30.99108373 120.15381216 -28.8063221 120 -25 120 C-21.10858555 121.94570723 -18.34159762 124.59857599 -15.3125 127.65625 C-14.68988281 128.28337891 -14.06726563 128.91050781 -13.42578125 129.55664062 C-12.95527344 130.03294922 -12.48476562 130.50925781 -12 131 C-11.99918285 130.03285804 -11.99918285 130.03285804 -11.99834919 129.04617786 C-11.98337971 113.35527079 -11.94092656 97.66471495 -11.86790943 81.9739809 C-11.83326101 74.38602295 -11.80790413 66.79824663 -11.80444336 59.21020508 C-11.80140323 52.59618551 -11.78090659 45.98248944 -11.73947543 39.36859483 C-11.7181476 35.86671063 -11.70554332 32.36528628 -11.71384621 28.86333656 C-11.7227896 24.95325321 -11.69275843 21.04399604 -11.65942383 17.1340332 C-11.66804947 15.97381653 -11.67667511 14.81359985 -11.68556213 13.6182251 C-11.57337236 5.78744547 -11.57337236 5.78744547 -8.65019226 1.77287292 C-5.41110481 -0.39394739 -3.82429632 -0.65094405 0 0 Z " fill="#000000" transform="translate(195,296)"/>
<path d="M0 0 C2.34168764 3.51253146 2.49623677 4.86469356 2 9 C0.5 11.875 0.5 11.875 -2 14 C-8.31153206 15.08819518 -12.20737494 13.26307547 -17.703125 10.19140625 C-24.29780507 6.77069635 -32.03583347 7.26145349 -39.0625 9.125 C-48.40059601 12.29145014 -54.34804917 17.33723259 -59 26 C-59.3403125 26.61488281 -59.680625 27.22976562 -60.03125 27.86328125 C-63.37102549 35.08399956 -63.09659289 43.72531846 -61.15625 51.2890625 C-57.97157703 59.78869644 -53.00940145 66.08875776 -44.9375 70.375 C-36.00512312 74.30246532 -27.62052542 75.52953708 -18.328125 72.19921875 C-14.5662603 70.26147972 -11.55727992 67.49799396 -8.45703125 64.64453125 C-5.37996861 62.58500284 -3.63594949 62.53132266 0 63 C3.21142855 65.37366458 4.71584605 66.93442268 5.75 70.8125 C4.17981948 77.48576721 -1.12079744 81.68829785 -6.6875 85.3125 C-18.44540692 91.85060885 -31.13630275 92.57702057 -43.94140625 89.046875 C-56.99198245 84.58001112 -65.73317817 77.69270509 -73 66 C-79.01518564 53.70294562 -81.61995742 39.83572147 -77.75 26.375 C-77.20456456 24.90207296 -76.62360205 23.44157357 -76 22 C-75.59974609 20.99839844 -75.59974609 20.99839844 -75.19140625 19.9765625 C-69.69127727 7.60738355 -59.61051855 -1.17582754 -47.19921875 -6.22265625 C-31.22137956 -11.87024062 -13.98775175 -9.6259797 0 0 Z " fill="#000000" transform="translate(207,180)"/>
<path d="M0 0 C1.69172668 1.02070618 1.69172668 1.02070618 3 3 C3.30980048 5.87603114 3.43746015 8.54004086 3.43237305 11.41870117 C3.44766052 12.70682961 3.44766052 12.70682961 3.46325684 14.02098083 C3.49347027 16.86170912 3.50266548 19.70210067 3.51171875 22.54296875 C3.52855925 24.51167428 3.54670863 26.48036901 3.56611633 28.4490509 C3.61369073 33.63248319 3.64345195 38.81587173 3.66955566 43.99945068 C3.69932368 49.28813317 3.74586688 54.57666478 3.79101562 59.86523438 C3.87713337 70.24341078 3.94444096 80.62161817 4 91 C4.72445312 90.21753906 5.44890625 89.43507813 6.1953125 88.62890625 C7.17118738 87.60611431 8.14778859 86.58401504 9.125 85.5625 C9.8365625 84.7880957 9.8365625 84.7880957 10.5625 83.99804688 C13.87372027 80.57496105 16.20878422 79.11994699 21 79 C25.56521739 81.13043478 25.56521739 81.13043478 27 84 C27.54067789 87.37923683 27.78200568 89.87359648 25.76489258 92.77905273 C25.20954834 93.38692627 24.6542041 93.9947998 24.08203125 94.62109375 C23.44668457 95.3171875 22.81133789 96.01328125 22.15673828 96.73046875 C18.22941415 100.86318385 14.22802124 104.91561299 10.1875 108.9375 C8.90069336 110.23010742 8.90069336 110.23010742 7.58789062 111.54882812 C6.76869141 112.36673828 5.94949219 113.18464844 5.10546875 114.02734375 C3.99401489 115.13710571 3.99401489 115.13710571 2.86010742 116.26928711 C0.40949028 118.54943213 -0.77251221 118.96360195 -4.125 119.5 C-8.17503593 118.97741472 -8.76173218 118.68886052 -11.58984375 116.09375 C-12.2859375 115.45759766 -12.98203125 114.82144531 -13.69921875 114.16601562 C-14.83810547 113.09383789 -14.83810547 113.09383789 -16 112 C-16.82628906 111.22849609 -17.65257812 110.45699219 -18.50390625 109.66210938 C-21.17622194 107.13537506 -23.80929339 104.57253241 -26.4375 102 C-27.34693359 101.13632812 -28.25636719 100.27265625 -29.19335938 99.3828125 C-36.46868143 92.23245864 -36.46868143 92.23245864 -37.140625 88.01953125 C-36.99870478 84.97218878 -36.86703182 83.40046949 -35 81 C-32.40978951 78.98539184 -31.00918865 78.99960899 -27.6953125 79.140625 C-23.23029724 80.17900064 -21.64376136 81.72798428 -18.5625 85.0625 C-17.26505859 86.44115234 -17.26505859 86.44115234 -15.94140625 87.84765625 C-15.30074219 88.55792969 -14.66007812 89.26820313 -14 90 C-13.99413376 88.94621658 -13.98826752 87.89243317 -13.98222351 86.80671692 C-13.92500508 76.87472695 -13.85224798 66.94295612 -13.76428509 57.01118946 C-13.7195618 51.90518078 -13.68030991 46.79925225 -13.65356445 41.69311523 C-13.62755113 36.76519617 -13.58716253 31.83758522 -13.53681374 26.9098568 C-13.52013171 25.03004476 -13.50862576 23.15017942 -13.50238609 21.27030373 C-13.49275956 18.63666119 -13.46471784 16.00380929 -13.43237305 13.37036133 C-13.43380814 12.59352493 -13.43524323 11.81668854 -13.4367218 11.01631165 C-13.35889965 6.53450584 -12.86392725 3.51739775 -10 0 C-6.22941703 -1.25686099 -3.86146303 -0.82745636 0 0 Z " fill="#000000" transform="translate(389,297)"/>
<path d="M0 0 C0.66257813 0.07089844 1.32515625 0.14179688 2.0078125 0.21484375 C4.892391 1.52436997 5.52480521 3.21896438 6.875 6.0625 C7.17311824 8.92474769 7.31265819 11.57193028 7.30737305 14.43286133 C7.32266052 15.67753677 7.32266052 15.67753677 7.33825684 16.94735718 C7.36836055 19.67981745 7.37764872 22.411927 7.38671875 25.14453125 C7.40356739 27.04311791 7.42171788 28.94169342 7.44111633 30.84025574 C7.48860237 35.82966632 7.51842081 40.81903173 7.54455566 45.80859375 C7.57436818 50.90308555 7.62089616 55.99742171 7.66601562 61.09179688 C7.75203289 71.08194981 7.81938526 81.07213479 7.875 91.0625 C8.51566406 90.35222656 9.15632813 89.64195312 9.81640625 88.91015625 C10.68136719 87.99105469 11.54632813 87.07195312 12.4375 86.125 C13.28441406 85.20847656 14.13132813 84.29195313 15.00390625 83.34765625 C18.4034377 80.64190673 20.58095253 80.24522542 24.875 80.0625 C27.52316011 80.84979084 28.50384529 81.58530109 30.1875 83.75 C31.21802238 87.21630254 30.71773623 89.55029906 29.875 93.0625 C28.25280698 95.47737775 26.26366666 97.39997622 24.16015625 99.3984375 C23.58921738 99.96325836 23.0182785 100.52807922 22.43003845 101.11001587 C20.61282957 102.90040322 18.77555906 104.66855176 16.9375 106.4375 C15.70506306 107.64840047 14.47392819 108.86062767 13.24414062 110.07421875 C3.2975314 119.83489498 3.2975314 119.83489498 -1.25 120.5625 C-5.30096821 120.03979443 -5.90752751 119.73780323 -8.74609375 117.14453125 C-9.79023437 116.19151123 -9.79023437 116.19151123 -10.85546875 115.21923828 C-14.98818385 111.29191415 -19.04061299 107.29052124 -23.0625 103.25 C-23.92423828 102.39212891 -24.78597656 101.53425781 -25.67382812 100.65039062 C-26.90069336 99.4215918 -26.90069336 99.4215918 -28.15234375 98.16796875 C-29.26210571 97.05651489 -29.26210571 97.05651489 -30.39428711 95.92260742 C-32.82862693 93.30626731 -33.10455712 92.33847885 -33.375 88.6875 C-33.125 85.0625 -33.125 85.0625 -32.0625 82.6875 C-28.98984658 80.11043584 -27.12803918 79.86562922 -23.125 80.0625 C-20.07822854 82.03394036 -17.64331681 84.46517718 -15.125 87.0625 C-13.45957318 88.73040559 -11.79303756 90.39720536 -10.125 92.0625 C-10.12357498 90.96891174 -10.12214996 89.87532349 -10.12068176 88.74859619 C-10.10402062 78.44833677 -10.06127409 68.14847287 -9.99290943 57.848423 C-9.95860164 52.55286228 -9.93352355 47.2575912 -9.92944336 41.96191406 C-9.92516856 36.852332 -9.89677377 31.74340376 -9.85156822 26.63402557 C-9.83856702 24.68360958 -9.83429479 22.73311545 -9.83884621 20.78266144 C-9.84373362 18.05262944 -9.81774368 15.32452214 -9.78442383 12.59472656 C-9.79304947 11.78624268 -9.80167511 10.97775879 -9.81056213 10.14477539 C-9.72964216 6.19632822 -9.49760487 4.4511396 -6.71708679 1.55096436 C-4.06307945 0.02694311 -2.97711371 -0.42613588 0 0 Z " fill="#000000" transform="translate(129.125,295.9375)"/>
<path d="M0 0 C4.1101429 0.85627977 5.41361022 2.33961948 8 5.625 C8.4975984 8.63452425 8.69239834 11.08168483 8.65942383 14.0871582 C8.66990753 14.9266954 8.68039124 15.7662326 8.69119263 16.63121033 C8.71991327 19.39644463 8.71365477 22.16042469 8.70703125 24.92578125 C8.72014812 26.84679227 8.73545231 28.76778949 8.75285339 30.68876648 C8.79271757 35.73747019 8.80289477 40.78581323 8.80688477 45.83465576 C8.8162135 50.98949128 8.85362544 56.14411465 8.88867188 61.29882812 C8.95326221 71.40754216 8.98649047 81.51609767 9 91.625 C9.64066406 90.91472656 10.28132813 90.20445312 10.94140625 89.47265625 C11.80636719 88.55355469 12.67132813 87.63445312 13.5625 86.6875 C14.40941406 85.77097656 15.25632812 84.85445313 16.12890625 83.91015625 C19.53971249 81.19543292 21.68315715 80.75627241 26 80.625 C28.94755732 81.97062399 30.54277272 82.71054544 32 85.625 C32.5 88.25 32.5 88.25 32 91.625 C30.78686523 93.31787109 30.78686523 93.31787109 29.12109375 95.1484375 C28.48478027 95.84888184 27.8484668 96.54932617 27.19287109 97.27099609 C26.1073999 98.43622803 26.1073999 98.43622803 25 99.625 C24.20287598 100.48818848 23.40575195 101.35137695 22.58447266 102.24072266 C19.94144723 105.06678447 17.25705921 107.84809108 14.5625 110.625 C14.1099585 111.1092041 13.65741699 111.5934082 13.19116211 112.09228516 C11.85695439 113.51789005 10.49317276 114.91563335 9.12890625 116.3125 C8.33556885 117.14136719 7.54223145 117.97023438 6.72485352 118.82421875 C3.7526099 120.78849336 1.58878557 121.34868635 -1.98576355 121.13470459 C-5.79685226 120.1703047 -8.03427604 117.59001961 -10.65234375 114.7890625 C-11.23794571 114.19451263 -11.82354767 113.59996277 -12.42689514 112.98739624 C-14.28337285 111.09293747 -16.10986491 109.17225512 -17.9375 107.25 C-19.19154886 105.96437729 -20.44739181 104.68050202 -21.70507812 103.3984375 C-31.88393186 92.95978357 -31.88393186 92.95978357 -32.25 88.75 C-31.96621485 85.20268562 -31.67676107 83.95637254 -29 81.625 C-25.40444474 80.62623465 -23.08244866 80.20867359 -19.5625 81.5625 C-17.14477056 83.50847735 -15.0235713 85.55240676 -12.83984375 87.75390625 C-12.12046631 88.47779541 -11.40108887 89.20168457 -10.65991211 89.94750977 C-10.11214111 90.50108154 -9.56437012 91.05465332 -9 91.625 C-8.99857498 90.55868851 -8.99714996 89.49237701 -8.99568176 88.39375305 C-8.97901113 78.34397491 -8.93623551 68.29460164 -8.86790943 58.24503803 C-8.83362084 53.0784201 -8.80852653 47.91209844 -8.80444336 42.74536133 C-8.80016445 37.75896144 -8.77173542 32.77323012 -8.72656822 27.7870388 C-8.71358021 25.8848987 -8.70929015 23.98267864 -8.71384621 22.08049965 C-8.718743 19.41531848 -8.69270221 16.75209829 -8.65942383 14.0871582 C-8.66804947 13.30097107 -8.67667511 12.51478394 -8.68556213 11.70477295 C-8.60152098 7.68898434 -8.16066881 5.82909073 -5.64628601 2.63517761 C-3 0.625 -3 0.625 0 0 Z " fill="#000000" transform="translate(256,295.375)"/>
<path d="M0 0 C4.69360501 2.7871304 7.6682627 6.5107354 9.6875 11.5625 C11.51109571 22.0580149 8.41355895 29.16281383 2.57421875 37.625 C0.65092367 40.30326527 -1.30727144 42.94525379 -3.3125 45.5625 C-2.19101562 45.60117188 -2.19101562 45.60117188 -1.046875 45.640625 C6.88787192 46.09759995 6.88787192 46.09759995 10.375 48.125 C11.95660121 51.0622594 12.20704113 53.26867999 12.31640625 56.5625 C11.32480282 59.71592209 9.39796908 60.76456855 6.6875 62.5625 C3.53710937 63.08007812 3.53710937 63.08007812 0.03125 63.09375 C-1.87333984 63.10148437 -1.87333984 63.10148437 -3.81640625 63.109375 C-5.13511719 63.09390625 -6.45382812 63.0784375 -7.8125 63.0625 C-9.79056641 63.08570313 -9.79056641 63.08570313 -11.80859375 63.109375 C-13.07832031 63.10421875 -14.34804688 63.0990625 -15.65625 63.09375 C-17.39165039 63.08698242 -17.39165039 63.08698242 -19.16210938 63.08007812 C-22.96010252 62.45610529 -24.61048537 61.25963295 -27.3125 58.5625 C-28.5625 55.5 -28.5625 55.5 -28.3125 51.5625 C-24.68283137 43.92430843 -18.89683177 37.28711117 -13.64453125 30.703125 C-10.16884086 26.02229573 -7.02989811 21.48103443 -6.3125 15.5625 C-8.2925 15.5625 -10.2725 15.5625 -12.3125 15.5625 C-12.76625 16.51125 -13.22 17.46 -13.6875 18.4375 C-15.3125 21.5625 -15.3125 21.5625 -17.3125 23.5625 C-19.37109375 23.86328125 -19.37109375 23.86328125 -21.75 23.875 C-22.92369141 23.90013672 -22.92369141 23.90013672 -24.12109375 23.92578125 C-26.3125 23.5625 -26.3125 23.5625 -28.06640625 22.3046875 C-30.03465357 19.55284329 -29.84468884 17.27336124 -29.7265625 13.9765625 C-28.75474864 8.31070434 -25.62067597 4.58287726 -21.1875 1.125 C-14.72076177 -2.38953164 -6.8589376 -2.9130623 0 0 Z " fill="#000000" transform="translate(363.3125,137.4375)"/>
</svg>
