<?xml version="1.0" encoding="UTF-8"?>
<svg version="1.1" xmlns="http://www.w3.org/2000/svg" width="512" height="512">
<path d="M0 0 C0.97428955 0.25740967 0.97428955 0.25740967 1.96826172 0.52001953 C23.51700699 6.32619482 46.68501949 17.00072351 61.05078125 34.67578125 C66.65533769 41.68060314 66.65533769 41.68060314 74.45019531 45.57519531 C79.84599966 46.01562809 85.1870888 45.54072531 90.57177734 45.11865234 C102.93650572 44.51446393 116.65601086 50.73376717 126.17578125 58.44140625 C135.21105862 66.82684348 143.39870518 79.4875159 144.1953125 92.08984375 C144.16050781 93.49943359 144.16050781 93.49943359 144.125 94.9375 C144.10695313 95.89527344 144.08890625 96.85304688 144.0703125 97.83984375 C144.03550781 98.90912109 144.03550781 98.90912109 144 100 C144.86367188 100.10570312 145.72734375 100.21140625 146.6171875 100.3203125 C158.20467067 102.64851351 166.98024003 110.86889313 175 119 C175.88816406 119.87785156 176.77632813 120.75570312 177.69140625 121.66015625 C188.55138922 132.91806226 198.85475183 150.08535131 199.20874023 166.23925781 C199.22803085 167.06822571 199.24732147 167.8971936 199.26719666 168.75128174 C199.32577823 172.57469598 199.37433266 176.39793312 199.4050293 180.22167969 C199.42644797 182.21925312 199.46035449 184.21673694 199.50756836 186.21386719 C200.0112673 207.75999253 194.6667781 225.47047718 179.43359375 241.5 C178.22896484 242.7375 178.22896484 242.7375 177 244 C176.16597656 244.9075 175.33195312 245.815 174.47265625 246.75 C158.61939214 263.51116029 138.1003602 272.33469152 115.09765625 273.24609375 C113.4819455 273.2785655 111.86599584 273.30096306 110.25 273.3125 C109.49936279 273.31813965 108.74872559 273.3237793 107.9753418 273.32958984 C102.96963346 273.26242969 99.26915863 272.67698785 95.21875 269.68359375 C93.10882011 266.76891495 93.47896039 263.86434309 93.5703125 260.3828125 C94 258 94 258 96.375 255.4375 C99.8702436 253.52343803 101.84378132 252.85772928 105.8125 252.67578125 C123.00436231 251.70239157 138.68340695 249.18530757 153 239 C153.74121094 238.5359375 154.48242188 238.071875 155.24609375 237.59375 C168.80560591 228.38174174 175.92048376 211.09933987 179.375 195.625 C182.2173807 175.87637577 179.03638545 158.59530285 168 142 C167.40445312 141.08347656 166.80890625 140.16695312 166.1953125 139.22265625 C158.53363886 128.55221378 146.22605341 122.81446535 134.68579102 117.18139648 C130.46427645 115.05743607 127.43519082 113.21615126 125 109 C124.5011679 106.33578311 124.18197813 103.92929745 124 101.25 C122.90002202 89.84387539 118.72776148 80.7129055 110 73 C100.9050707 66.95762168 90.50511021 64.3589133 79.671875 66.44921875 C78.22081868 66.79717613 76.77440016 67.16568271 75.3359375 67.5625 C67.52108395 69.0261515 67.52108395 69.0261515 64.23974609 66.8125 C62.39100053 65.11889756 60.69189909 63.35019995 59 61.5 C58.07175415 60.53259888 58.07175415 60.53259888 57.12475586 59.5456543 C54.13280617 56.40345472 51.28800628 53.1892961 48.5625 49.8125 C39.54032169 39.27910682 26.46478158 32.5537454 14 27 C12.94554687 26.51789063 11.89109375 26.03578125 10.8046875 25.5390625 C-4.04196875 19.27384951 -19.99462646 16.98453151 -36 18 C-37.12656006 18.06598389 -37.12656006 18.06598389 -38.27587891 18.13330078 C-69.3732007 20.15361979 -98.38075876 32.07688738 -120 55 C-123.00862324 58.48442116 -125.89345326 62.06331693 -128.72412109 65.69335938 C-129.2392627 66.35271484 -129.7544043 67.01207031 -130.28515625 67.69140625 C-130.73769775 68.28123291 -131.19023926 68.87105957 -131.65649414 69.47875977 C-133 71 -133 71 -136 73 C-142.82506077 72.8916657 -148.02084357 70.9693516 -154.203125 68.15625 C-163.28264169 64.40270679 -175.40274173 64.66817644 -184.6015625 67.96875 C-193.65450566 71.86122067 -200.01865645 76.07949941 -206 84 C-206.48210937 84.60328125 -206.96421875 85.2065625 -207.4609375 85.828125 C-211.2860876 91.16015241 -212.37704355 97.08280129 -213.6171875 103.4140625 C-215.41956702 108.08802974 -217.62649397 110.56420012 -222 113 C-225.33040034 113.96058422 -228.61611063 114.27582193 -232.0625 114.5625 C-246.51559102 116.22485639 -257.98322196 120.70230732 -270 129 C-270.69996094 129.48210937 -271.39992188 129.96421875 -272.12109375 130.4609375 C-284.19904812 139.76822527 -291.09174054 157.68578081 -293.55078125 172.265625 C-295.86179146 191.47715332 -292.77853099 209.86576731 -280.77197266 225.61035156 C-267.99972943 241.30887554 -251.08881933 249.88903416 -231 252 C-227.25701792 252.21998581 -223.50837364 252.38762384 -219.75854492 252.35864258 C-216.0215074 252.43239692 -213.4947984 252.99668217 -210.546875 255.22265625 C-207.82997941 258.18540589 -207.21732141 259.13872888 -207.375 263.0625 C-207.58216336 266.45795792 -207.8114467 267.73342464 -209.8125 270.5625 C-218.39610352 276.20315374 -233.74838992 273.32051261 -243.37744141 271.33764648 C-266.04895897 266.28851885 -287.16932717 253.82354562 -300 234 C-305.34055907 225.00919473 -309.4805391 216.22018602 -312 206 C-312.17362061 205.30656494 -312.34724121 204.61312988 -312.52612305 203.89868164 C-313.62465695 197.17900468 -313.30728784 190.2409654 -313.35009766 183.44750977 C-313.36656121 181.54015825 -313.3937223 179.63286594 -313.43212891 177.72583008 C-313.73975963 162.33225641 -312.01848237 150.06385369 -303.375 136.875 C-302.95041504 136.21250244 -302.52583008 135.55000488 -302.08837891 134.86743164 C-297.72588493 128.2584363 -292.62595992 122.54924228 -287 117 C-286.33484375 116.33613281 -285.6696875 115.67226562 -284.984375 114.98828125 C-271.05056746 101.96192756 -251.12740307 93.39278085 -232 94 C-231.979375 92.948125 -231.95875 91.89625 -231.9375 90.8125 C-230.2125414 77.77181296 -219.84573706 66.82081033 -210.234375 58.6484375 C-195.00252577 47.02871251 -177.88325231 43.14275369 -159 45 C-154.87424543 45.75602374 -150.95122138 46.91425581 -146.96875 48.22265625 C-143.89939083 49.02634372 -142.89433478 49.04007918 -140 48 C-137.98967664 46.04495326 -136.15208512 44.10389501 -134.3125 42 C-133.23546669 40.80630576 -132.15733543 39.61360128 -131.078125 38.421875 C-130.55154297 37.83599609 -130.02496094 37.25011719 -129.48242188 36.64648438 C-113.52632524 18.92449562 -92.56330962 8.04897556 -70 1 C-69.29311035 0.7740918 -68.5862207 0.54818359 -67.85791016 0.31542969 C-47.45909919 -5.89435565 -20.52419359 -5.56096214 0 0 Z " fill="#F0A067" transform="translate(313,57)"/>
<path d="M0 0 C0.71800781 0.59554687 1.43601562 1.19109375 2.17578125 1.8046875 C2.82160156 2.33835938 3.46742188 2.87203125 4.1328125 3.421875 C13.04379844 11.53689052 18.36973138 24.27159763 19.37890625 36.20703125 C19.67178833 52.04707057 15.32569911 65.08035058 4.4296875 76.55078125 C-6.60455002 87.58501877 -18.93510364 92.84456092 -34.75976562 92.89746094 C-48.98807485 92.25806199 -62.12753849 85.64424226 -71.7890625 75.31640625 C-81.58352177 63.22842676 -85.15843745 50.37779615 -84.07861328 35.00976562 C-82.85763105 24.42635729 -78.74857093 14.89770672 -71.82421875 6.8046875 C-71.27507812 6.11117187 -70.7259375 5.41765625 -70.16015625 4.703125 C-52.75384597 -15.15693827 -20.09197219 -15.32382822 0 0 Z M-57.671875 18.84375 C-64.03706781 27.69559062 -66.39825901 38.01489542 -64.82421875 48.8046875 C-61.19962989 59.07435594 -55.40151642 65.79210904 -45.82421875 70.8046875 C-37.31147425 74.54017503 -30.03869716 74.68233576 -21.2734375 71.76953125 C-12.45404523 68.29522521 -6.71378086 62.64347819 -2.5 54.12890625 C1.08069064 45.2462807 1.26824492 37.25988202 -1.7890625 28.1875 C-5.33836026 20.01741836 -11.64721847 13.97243014 -19.828125 10.546875 C-32.93330235 5.94800295 -47.89996818 8.05953148 -57.671875 18.84375 Z " fill="#EF9F66" transform="translate(305.82421875,180.1953125)"/>
<path d="M0 0 C4.57627119 3.15254237 4.57627119 3.15254237 6 6 C6.1045122 7.62152515 6.14654083 9.24725307 6.15821838 10.87210083 C6.1680072 11.90137695 6.17779602 12.93065308 6.18788147 13.99111938 C6.19651466 15.69151871 6.19651466 15.69151871 6.20532227 17.42626953 C6.21522186 18.61649719 6.22512146 19.80672485 6.23532104 21.03302002 C6.26154205 24.30137972 6.28339039 27.56973413 6.30332303 30.83813715 C6.3251681 34.25213424 6.35256401 37.66608659 6.37937927 41.08004761 C6.4293262 47.54691217 6.47425759 54.01380154 6.51740164 60.48071468 C6.56675694 67.84219823 6.62168139 75.20363691 6.67708123 82.56507707 C6.79093197 97.71000956 6.89776426 112.85498431 7 128 C7.72316406 127.25943359 7.72316406 127.25943359 8.4609375 126.50390625 C9.09257812 125.86324219 9.72421875 125.22257812 10.375 124.5625 C11.00148438 123.92441406 11.62796875 123.28632813 12.2734375 122.62890625 C15.50281098 119.58218965 18.4426384 119.53837275 22.734375 119.59375 C25 120 25 120 28.0625 122.5625 C30.43406948 126.77012328 31.10576766 128.26099575 30 133 C27.89515518 136.08040492 25.36037912 138.6630885 22.71826172 141.28759766 C20.63600406 143.36275469 18.5871057 145.46909444 16.53515625 147.57421875 C14.9207322 149.21758275 13.30483232 150.85949813 11.6875 152.5 C10.89875488 153.30219971 10.11000977 154.10439941 9.29736328 154.9309082 C8.54310059 155.685896 7.78883789 156.44088379 7.01171875 157.21875 C6.33584717 157.89873047 5.65997559 158.57871094 4.96362305 159.27929688 C1.6391699 162.19248173 -0.50290803 162.95024154 -4.94140625 163.39453125 C-12.5920357 162.32397605 -17.87711621 155.01294803 -22.9375 149.6875 C-24.08223 148.51976198 -25.22870108 147.35372805 -26.37695312 146.18945312 C-27.47032406 145.06924253 -28.56217604 143.94754691 -29.65234375 142.82421875 C-30.41477638 142.03962532 -30.41477638 142.03962532 -31.19261169 141.23918152 C-35.05055469 137.17111477 -37.27810948 134.15840623 -37.375 128.5 C-37.2798735 125.46095851 -37.07894817 124.1407337 -35.5625 121.4375 C-31.58078754 119.20385642 -28.42807228 118.89098123 -24 120 C-21.5612793 121.82324219 -21.5612793 121.82324219 -19.19921875 124.046875 C-18.40733154 124.78260742 -17.61544434 125.51833984 -16.79956055 126.27636719 C-15.90877808 127.12956543 -15.90877808 127.12956543 -15 128 C-14.99780016 127.07289372 -14.99780016 127.07289372 -14.99555588 126.12705803 C-14.95848187 111.07840419 -14.89945953 96.03000957 -14.81609726 80.98155022 C-14.7763112 73.7041678 -14.74391659 66.42689346 -14.72900391 59.14941406 C-14.71598504 52.80532497 -14.68901472 46.46147369 -14.64538693 40.11751854 C-14.62277696 36.75930456 -14.60708901 33.40138385 -14.60811615 30.04308701 C-14.6057545 26.29121881 -14.57873674 22.54028217 -14.54589844 18.78857422 C-14.5509288 17.67870651 -14.55595917 16.56883881 -14.56114197 15.42533875 C-14.47832489 9.31584796 -14.10840184 5.64089665 -10 1 C-6.61773211 -1.59307205 -3.99718159 -1.14205188 0 0 Z " fill="#EE9F66" transform="translate(324,295)"/>
<path d="M0 0 C2.86942113 2.26533247 3.83907612 3.51722837 5 7 C5.10124058 8.64920119 5.14623306 10.30212922 5.15821838 11.95439148 C5.1680072 12.97662811 5.17779602 13.99886475 5.18788147 15.05207825 C5.19651466 16.73305855 5.19651466 16.73305855 5.20532227 18.44799805 C5.21522186 19.62861816 5.22512146 20.80923828 5.23532104 22.02563477 C5.26151234 25.26294445 5.28337297 28.50024892 5.30332303 31.737602 C5.32519153 35.12089678 5.35257599 38.50414676 5.37937927 41.8874054 C5.42929448 48.29402946 5.47423765 54.70067841 5.51740164 61.10735112 C5.56678403 68.40114458 5.62169844 75.69489308 5.67708123 82.98864305 C5.79088328 97.99238681 5.89772619 112.9961729 6 128 C6.72316406 127.25943359 6.72316406 127.25943359 7.4609375 126.50390625 C8.09257812 125.86324219 8.72421875 125.22257812 9.375 124.5625 C10.00148437 123.92441406 10.62796875 123.28632813 11.2734375 122.62890625 C13.71838119 120.32225123 14.84016813 120.01844214 18.25 119.625 C23.13275687 120.11327569 24.85859952 121.24564333 28 125 C28.81340644 128.12742078 28.73192351 130.85857534 28 134 C25.89986047 137.15919993 23.25973706 139.54859545 20.4375 142.0625 C19.01711206 143.38412354 17.59912903 144.70833654 16.18359375 146.03515625 C15.48476074 146.68242676 14.78592773 147.32969727 14.06591797 147.99658203 C11.37883877 150.6023693 8.94541308 153.38148104 6.52758789 156.23608398 C3.23404573 160.03915928 0.67634723 162.73058705 -4.5 163.5625 C-10.90456221 162.53319536 -15.26948202 158.07069945 -19.80078125 153.67578125 C-20.58354683 152.91723091 -20.58354683 152.91723091 -21.38212585 152.14335632 C-22.47485001 151.07810675 -23.56464618 150.00984606 -24.65161133 148.9387207 C-25.75900278 147.85444399 -26.87529085 146.77917975 -28.00024414 145.71313477 C-38.5524842 135.71198179 -38.5524842 135.71198179 -39.34375 129.91796875 C-38.95944971 125.53781888 -38.2147725 123.93922058 -35 121 C-31.65678159 119.3283908 -28.56690714 119.11614781 -25 120 C-22.59790039 121.80493164 -22.59790039 121.80493164 -20.22265625 124.03515625 C-19.02974976 125.14129272 -19.02974976 125.14129272 -17.81274414 126.26977539 C-16.91543579 127.12623657 -16.91543579 127.12623657 -16 128 C-15.99780016 127.07289372 -15.99780016 127.07289372 -15.99555588 126.12705803 C-15.95848187 111.07840419 -15.89945953 96.03000957 -15.81609726 80.98155022 C-15.7763112 73.7041678 -15.74391659 66.42689346 -15.72900391 59.14941406 C-15.71598504 52.80532497 -15.68901472 46.46147369 -15.64538693 40.11751854 C-15.62277696 36.75930456 -15.60708901 33.40138385 -15.60811615 30.04308701 C-15.6057545 26.29121881 -15.57873674 22.54028217 -15.54589844 18.78857422 C-15.5509288 17.67870651 -15.55595917 16.56883881 -15.56114197 15.42533875 C-15.47829967 9.31398742 -15.1044446 5.64513725 -11 1 C-7.45513483 -1.81144479 -4.22487366 -1.05621841 0 0 Z " fill="#EE9F66" transform="translate(197,295)"/>
<path d="M0 0 C2.3025544 2.00869694 3.39944634 3.02696844 4.234375 5.94921875 C4.15850921 10.12183745 3.5676071 12.43324647 1.296875 15.94921875 C-2.54152594 18.45592957 -4.45633852 18.34655546 -8.88671875 17.6796875 C-12.17321375 16.84580071 -15.18961499 15.66781816 -18.328125 14.38671875 C-27.24432834 10.7993808 -33.21146646 11.12755533 -42.12109375 14.69140625 C-50.48466508 18.66935303 -54.9373473 24.04456881 -58.87890625 32.2734375 C-61.29759854 39.57213451 -60.64619732 48.80562384 -57.80078125 55.92578125 C-53.69906657 63.94347259 -48.31270813 68.73194148 -39.98046875 72.0625 C-33.46908061 73.85847219 -24.27440333 74.34602671 -17.828125 71.82421875 C-15.29253333 70.27181568 -13.09007407 68.65907798 -10.765625 66.82421875 C-7.14226597 64.02084619 -4.48273579 62.77121457 0.234375 62.94921875 C3.6370564 64.99082759 6.12783696 67.0763356 7.234375 70.94921875 C7.45998063 74.78451453 6.86905014 77.09001231 4.578125 80.19140625 C-3.12842636 88.48432565 -13.35386475 94.1700374 -24.765625 94.94921875 C-39.19214665 95.20944913 -52.06816927 91.90322196 -62.765625 81.94921875 C-63.47460938 81.30726563 -64.18359375 80.6653125 -64.9140625 80.00390625 C-75.02071564 70.42324993 -79.96580309 58.66158762 -81.00390625 44.7578125 C-81.32533914 30.15799243 -77.20240299 18.1707217 -67.359375 7.2890625 C-49.46442497 -10.15851378 -21.17195337 -15.69954169 0 0 Z " fill="#EF9F66" transform="translate(206.765625,178.05078125)"/>
<path d="M0 0 C3.92532902 2.76802961 5.81580633 5.07003179 6.75949097 9.83456421 C6.79427459 11.29213342 6.79685659 12.75070792 6.77294922 14.20849609 C6.78889381 15.40949951 6.78889381 15.40949951 6.80516052 16.63476562 C6.83312733 19.2649694 6.81917577 21.89315417 6.8046875 24.5234375 C6.8159419 26.35334011 6.82982441 28.18322829 6.84622192 30.01309204 C6.88223338 34.81692972 6.88263684 39.62013061 6.87554932 44.42407227 C6.87463589 49.33100753 6.90750232 54.23770482 6.9375 59.14453125 C6.99133723 68.76308754 7.00754707 78.38130966 7 88 C7.78761719 87.03835938 8.57523437 86.07671875 9.38671875 85.0859375 C11.42502071 82.59727422 12.82042604 80.9084497 16 80 C22.96132597 79.33701657 22.96132597 79.33701657 26.9375 81.875 C29.3835593 84.39518231 29.92635203 85.33532703 30.3125 88.8203125 C29.92032369 92.81070648 28.76521776 94.02570468 26 96.875 C25.17757812 97.73609375 24.35515625 98.5971875 23.5078125 99.484375 C22.68023437 100.31453125 21.85265625 101.1446875 21 102 C19.94425781 103.05960938 19.94425781 103.05960938 18.8671875 104.140625 C17.5533999 105.44926049 16.23576579 106.75404722 14.9140625 108.0546875 C12.94365231 110.05726765 11.09037926 112.1276903 9.25 114.25 C8.67507813 114.90613281 8.10015625 115.56226563 7.5078125 116.23828125 C6.33905694 117.60384798 5.22091368 119.01281222 4.125 120.4375 C0.79925007 122.88290436 -2.92128184 123.52798941 -7 123 C-12.07128365 120.19726594 -15.92273561 116.3530914 -19.9375 112.25 C-20.55286621 111.62746338 -21.16823242 111.00492676 -21.80224609 110.36352539 C-25.54987997 106.54884532 -29.23964964 102.70087746 -32.6640625 98.58984375 C-33.86648918 97.15888568 -35.1783588 95.8216412 -36.5 94.5 C-38.40562798 91.32395336 -38.29864482 89.44210106 -37.58984375 85.87109375 C-36.6183297 82.78927104 -35.82059366 81.65107922 -33 80 C-29.44041284 79.16837964 -26.55961617 79.16416185 -23 80 C-20.73730469 81.82324219 -20.73730469 81.82324219 -18.671875 84.046875 C-17.97674805 84.78260742 -17.28162109 85.51833984 -16.56542969 86.27636719 C-16.04883789 86.84516602 -15.53224609 87.41396484 -15 88 C-14.99635437 86.9985495 -14.99270874 85.997099 -14.98895264 84.96530151 C-14.95198233 75.51921239 -14.89418741 66.07344865 -14.81609726 56.62760735 C-14.77661854 51.77158142 -14.74443199 46.91573693 -14.72900391 42.05957031 C-14.71383994 37.37147521 -14.679399 32.68387893 -14.63169098 27.99600601 C-14.6168745 26.20913152 -14.60895883 24.42218581 -14.60811615 22.63525009 C-14.6057455 20.12852799 -14.57865949 17.62318329 -14.54589844 15.11669922 C-14.5509288 14.38086105 -14.55595917 13.64502289 -14.56114197 12.8868866 C-14.45876466 7.81103977 -13.16773782 4.92730249 -10 1 C-6.61809815 -1.59279142 -3.97674266 -1.27255765 0 0 Z " fill="#EF9F66" transform="translate(260,295)"/>
<path d="M0 0 C0.85207031 -0.03996094 1.70414062 -0.07992188 2.58203125 -0.12109375 C6.41696289 0.701088 7.76013903 2.3935695 10.1875 5.4375 C10.68534722 8.38939543 10.88004904 10.76867491 10.84692383 13.71606445 C10.85740753 14.53609451 10.86789124 15.35612457 10.87869263 16.20100403 C10.9074076 18.90131634 10.90115552 21.60034382 10.89453125 24.30078125 C10.90764848 26.17695215 10.92295278 28.05310893 10.94035339 29.929245 C10.98021344 34.85958298 10.99039449 39.78955163 10.99438477 44.72003174 C11.00371429 49.75422375 11.04112672 54.78819857 11.07617188 59.82226562 C11.14075798 69.69400026 11.17398969 79.56557257 11.1875 89.4375 C11.74179687 88.87160156 12.29609375 88.30570312 12.8671875 87.72265625 C13.59164062 86.98917969 14.31609375 86.25570312 15.0625 85.5 C15.78179687 84.76910156 16.50109375 84.03820312 17.2421875 83.28515625 C19.86518484 80.79383549 20.83095258 80.47113655 24.5 80.125 C28.76286111 80.48625942 30.20742054 81.45742054 33.1875 84.4375 C34.81773814 87.69797629 34.6548535 89.81551035 34.1875 93.4375 C32.9765625 95.18139648 32.9765625 95.18139648 31.3125 96.99609375 C30.67634766 97.6921875 30.04019531 98.38828125 29.38476562 99.10546875 C28.65966797 99.87503906 27.93457031 100.64460938 27.1875 101.4375 C26.38505859 102.29472656 25.58261719 103.15195312 24.75585938 104.03515625 C22.09392702 106.84308489 19.39547081 109.61149089 16.6875 112.375 C16.00228271 113.09490112 16.00228271 113.09490112 15.30322266 113.8293457 C13.95662228 115.24301356 12.58788465 116.63548898 11.21875 118.02734375 C10.42017578 118.85097412 9.62160156 119.67460449 8.79882812 120.52319336 C5.53075151 122.91894773 3.20675015 123.28655848 -0.8125 123.4375 C-6.374685 121.009806 -10.11571701 117.48627556 -14.25 113.125 C-15.38079766 111.96028003 -16.51360232 110.79750515 -17.6484375 109.63671875 C-18.18952148 109.08290527 -18.73060547 108.5290918 -19.28808594 107.95849609 C-21.23438459 106.01656134 -23.27889103 104.21565986 -25.375 102.4375 C-29.17622864 99.17357583 -32.19006582 96.38779376 -33.75 91.5 C-33.82778829 87.68837363 -32.78936274 85.65905409 -30.8125 82.4375 C-28.50001503 80.12501503 -27.85144341 80.04587499 -24.6875 79.875 C-19.47207319 79.94251362 -16.95223508 82.2645459 -13.34375 85.80859375 C-12.8384375 86.34613281 -12.333125 86.88367188 -11.8125 87.4375 C-11.3175 87.9325 -11.3175 87.9325 -10.8125 88.4375 C-10.80663376 87.46332626 -10.80076752 86.48915253 -10.79472351 85.48545837 C-10.73742803 76.28988818 -10.66463081 67.09455293 -10.57678509 57.89922237 C-10.53212091 53.17217156 -10.49285608 48.44520615 -10.46606445 43.71801758 C-10.43999203 39.15317357 -10.39956181 34.58865889 -10.34931374 30.02401924 C-10.33267163 28.28541737 -10.32114084 26.54675857 -10.31488609 24.8080883 C-10.30521593 22.36642071 -10.27712289 19.92559062 -10.24487305 17.48413086 C-10.24630814 16.77058945 -10.24774323 16.05704803 -10.2492218 15.32188416 C-10.11292529 7.99143073 -8.40649124 0.2142584 0 0 Z " fill="#EF9F66" transform="translate(383.8125,294.5625)"/>
<path d="M0 0 C6.86035767 0.20146336 6.86035767 0.20146336 10.02734375 3.13671875 C12.38782777 7.44716783 12.6328948 10.56604784 12.67016602 15.42431641 C12.68006561 16.21464767 12.68996521 17.00497894 12.70016479 17.81925964 C12.73181497 20.43806945 12.75655108 23.05689741 12.78125 25.67578125 C12.80181649 27.48896767 12.82281288 29.30214927 12.84422302 31.11532593 C12.89947517 35.89270117 12.94887057 40.6701199 12.99707031 45.4475708 C13.04726241 50.32055543 13.10296042 55.19347673 13.15820312 60.06640625 C13.26582313 69.63145635 13.36725956 79.19656137 13.46484375 88.76171875 C14.63950195 87.31853271 14.63950195 87.31853271 15.83789062 85.84619141 C18.46141446 82.62292787 20.49956679 81.05927829 24.68359375 80.42578125 C28.31390506 80.36361839 30.78638328 80.39766679 34.02734375 82.13671875 C35.87168401 85.50464444 36.42046236 87.87177128 36.35961914 91.71289062 C34.43696084 98.26409304 28.7040172 102.8217854 23.88647461 107.42407227 C21.90378698 109.32283661 19.96743041 111.26100258 18.03320312 113.20898438 C16.7824537 114.43875166 15.52927543 115.66605455 14.2734375 116.890625 C13.69710068 117.46655899 13.12076385 118.04249298 12.52696228 118.63587952 C9.68903917 121.31254395 7.75401606 122.66911965 3.97680664 123.87866211 C-3.01956459 123.64569292 -7.63992942 119.13629293 -12.43359375 114.4375 C-12.95402252 113.93179977 -13.47445129 113.42609955 -14.01065063 112.90507507 C-15.09853115 111.84096604 -16.18235102 110.77269084 -17.26220703 109.70043945 C-18.90856221 108.07579177 -20.58196757 106.48281017 -22.2578125 104.88867188 C-31.1116688 96.2600835 -31.1116688 96.2600835 -31.87890625 90.71484375 C-31.46332526 85.93566241 -31.46332526 85.93566241 -29.66015625 83.19921875 C-26.20299314 80.50263152 -24.39462919 79.66443839 -20.07080078 79.99194336 C-16.69394194 81.01709606 -15.14927291 82.77263823 -12.73828125 85.3203125 C-11.94583008 86.14716553 -11.15337891 86.97401855 -10.33691406 87.82592773 C-9.74233398 88.46473877 -9.14775391 89.1035498 -8.53515625 89.76171875 C-8.53373123 88.7352121 -8.53230621 87.70870544 -8.53083801 86.65109253 C-8.51415674 76.96952206 -8.47134862 67.2883713 -8.40306568 57.60702324 C-8.36879854 52.62988147 -8.34368612 47.65304656 -8.33959961 42.67578125 C-8.33531609 37.87091434 -8.30684885 33.06673962 -8.26172447 28.26208878 C-8.2487512 26.43055378 -8.24444119 24.59893595 -8.24900246 22.76736069 C-8.2539098 20.19815408 -8.22781236 17.63096951 -8.19458008 15.06201172 C-8.20320572 14.30747208 -8.21183136 13.55293243 -8.22071838 12.77552795 C-8.09302944 6.87344742 -6.06179369 1.82134017 0 0 Z " fill="#EF9F66" transform="translate(125.53515625,294.23828125)"/>
<path d="M0 0 C4.34773083 3.13951931 7.822237 7.36766792 9.85546875 12.33984375 C11.59560651 25.00642792 5.70950467 34.21281315 -1.14453125 44.33984375 C-0.54125 44.42621094 0.06203125 44.51257813 0.68359375 44.6015625 C4.6603975 45.30071026 7.26346931 45.84891739 10.41796875 48.46484375 C12.28687642 52.2026591 12.976267 55.31387705 11.85546875 59.33984375 C10.01856576 62.15645547 7.84030185 63.8183473 4.85546875 65.33984375 C0.12534751 66.13985878 -4.48528491 66.04247841 -9.26953125 65.90234375 C-11.16251953 65.89944336 -11.16251953 65.89944336 -13.09375 65.89648438 C-20.1702852 65.79517661 -24.10355799 65.22625322 -29.89453125 61.08984375 C-32.05870966 58.05999398 -32.2037792 56.07246491 -32.14453125 52.33984375 C-30.05572803 47.19379217 -26.549451 42.84807579 -23.2109375 38.45703125 C-22.68717529 37.76794678 -22.16341309 37.0788623 -21.6237793 36.36889648 C-20.58022851 35.00835781 -19.5261882 33.6557794 -18.46020508 32.31274414 C-14.81264694 27.61612259 -12.33054446 22.86555501 -10.14453125 17.33984375 C-14.16231497 18.67910499 -14.92476973 20.83118844 -17.14453125 24.33984375 C-19.53740009 26.73271259 -20.23900219 26.66034991 -23.51953125 26.71484375 C-26.89760497 26.64967191 -27.85989849 26.55331832 -30.64453125 24.46484375 C-33.42946398 20.51952238 -33.74687318 17.08113526 -33.14453125 12.33984375 C-30.20034574 5.50933338 -25.7051029 0.79044702 -18.76953125 -2.03515625 C-11.84819868 -3.22848945 -6.27563261 -3.51986579 0 0 Z " fill="#EE9F66" transform="translate(365.14453125,136.66015625)"/>
</svg>
