<?xml version="1.0" encoding="UTF-8"?>
<svg version="1.1" xmlns="http://www.w3.org/2000/svg" width="512" height="512">
<path d="M0 0 C1.78125 0.8828125 1.78125 0.8828125 2.78125 2.8828125 C2.89983384 4.44239192 2.96033968 6.00655555 2.9921875 7.5703125 C3.01829102 8.5612793 3.04439453 9.55224609 3.07128906 10.57324219 C3.09932617 11.66540039 3.12736328 12.75755859 3.15625 13.8828125 C5.3602211 79.76117564 17.7809702 145.01525254 63.78125 194.8828125 C64.80372616 196.08975601 65.82452302 197.29812391 66.84375 198.5078125 C71.07976406 203.37971781 75.72469024 207.85057454 80.30859375 212.39086914 C83.99361436 216.05349813 87.50976365 219.7653804 90.85546875 223.7421875 C93.65890884 226.8583846 96.66892695 229.75648114 99.65625 232.6953125 C105.47213652 238.45339761 110.78737694 244.38734531 115.78125 250.8828125 C116.24241211 251.46756348 116.70357422 252.05231445 117.17871094 252.65478516 C142.315167 284.53736231 154.13380334 320.14889838 149.453125 360.78125 C145.25097973 394.08760257 127.93180552 424.08248197 104.78125 447.8828125 C104.03020996 448.66495117 103.27916992 449.44708984 102.50537109 450.25292969 C91.62462299 461.55241089 80.77608483 472.0640435 67.78125 480.8828125 C67.15557129 481.3159375 66.52989258 481.7490625 65.88525391 482.1953125 C36.78777873 502.32761965 36.78777873 502.32761965 28.78125 501.8828125 C27.78125 498.8828125 27.78125 498.8828125 29.1875 495.94140625 C29.8796031 494.73103217 30.57799446 493.52424097 31.28125 492.3203125 C48.09816727 462.13686471 50.31247457 430.36800096 41.54296875 397.28515625 C40.58137773 394.25244612 39.38230858 391.62748436 37.78125 388.8828125 C35.53019088 391.13387162 34.46364949 393.48807216 33.11694336 396.34228516 C29.79006541 403.38342269 26.51152663 409.48110678 20.78125 414.8828125 C20.23984375 415.44355469 19.6984375 416.00429688 19.140625 416.58203125 C14.61513962 420.94891317 9.84294993 422.49240246 3.78125 423.8828125 C2.49994147 421.32019544 2.9401306 420.29437935 3.5234375 417.515625 C3.79196533 416.19691406 3.79196533 416.19691406 4.06591797 414.8515625 C4.26072754 413.913125 4.45553711 412.9746875 4.65625 412.0078125 C11.75488697 375.76772229 1.7277686 341.61591585 -18.41455078 311.06933594 C-20.58708714 307.93255814 -22.88906963 304.90340298 -25.21875 301.8828125 C-26.20875 300.3978125 -26.20875 300.3978125 -27.21875 298.8828125 C-27.40667114 300.17191528 -27.40667114 300.17191528 -27.59838867 301.48706055 C-33.25831305 339.94117715 -40.01797467 372.54834977 -67.84375 401.578125 C-79.53141203 414.21858556 -85.68529131 430.92623767 -85.48828125 447.9765625 C-84.25956546 465.78403776 -76.0023391 481.03627908 -65.21875 494.8828125 C-63.21875 497.8828125 -63.21875 497.8828125 -63.59375 500.0703125 C-63.8 500.6684375 -64.00625 501.2665625 -64.21875 501.8828125 C-70.63697258 499.94906231 -76.49325799 497.46854971 -82.40625 494.3203125 C-83.23358643 493.88050049 -84.06092285 493.44068848 -84.91333008 492.98754883 C-92.49818326 488.86976366 -99.42143157 484.18456923 -106.21875 478.8828125 C-106.83782227 478.40505371 -107.45689453 477.92729492 -108.09472656 477.43505859 C-118.43030627 469.41213622 -128.02769675 460.69923135 -137.43017578 451.60839844 C-138.91000753 450.18068198 -140.40432265 448.76799455 -141.90234375 447.359375 C-168.38221202 421.96513413 -182.58171766 387.03155205 -183.53125 350.6328125 C-182.59291184 301.10940965 -156.95943013 249.62349263 -122.21875 214.8828125 C-120.18481445 215.03417969 -120.18481445 215.03417969 -118.21875 215.8828125 C-117.08864244 218.65809005 -116.2165108 221.2645124 -115.40625 224.1328125 C-110.90613685 238.69547848 -104.03198185 253.05531445 -90.21875 260.8828125 C-87.25871907 262.32487885 -84.26160664 263.62763414 -81.21875 264.8828125 C-81.41065918 264.17970947 -81.60256836 263.47660645 -81.80029297 262.75219727 C-83.88246873 254.82660036 -85.24062289 246.93491553 -86.34375 238.8203125 C-86.51261719 237.63115234 -86.68148437 236.44199219 -86.85546875 235.21679688 C-87.33555946 231.77488673 -87.78725848 228.33113169 -88.21875 224.8828125 C-88.32767578 224.01640137 -88.43660156 223.14999023 -88.54882812 222.25732422 C-91.08661099 198.78283276 -90.8380554 173.02499299 -86.21875 149.8828125 C-86.02007324 148.86832031 -85.82139648 147.85382813 -85.61669922 146.80859375 C-75.13918663 94.75850873 -50.24328149 49.63091251 -13.64306641 11.37890625 C-12.20922665 9.87280923 -10.7978004 8.34771636 -9.38671875 6.8203125 C-8.50628906 5.8921875 -7.62585938 4.9640625 -6.71875 4.0078125 C-5.9453125 3.18539063 -5.171875 2.36296875 -4.375 1.515625 C-2.21875 -0.1171875 -2.21875 -0.1171875 0 0 Z " fill="#F6A46A" transform="translate(272.21875,5.1171875)"/>
</svg>
