<?xml version="1.0" encoding="UTF-8"?>
<svg version="1.1" xmlns="http://www.w3.org/2000/svg" width="512" height="512">
<path d="M0 0 C0.02187378 1.08039551 0.02187378 1.08039551 0.04418945 2.18261719 C1.5772564 71.28439115 10.00554592 139.35497876 59 192 C60.06638287 193.24668915 61.12897991 194.49662796 62.1875 195.75 C66.14181752 200.30626281 70.45412205 204.50737424 74.76245117 208.72558594 C77.78186189 211.70045006 80.67061029 214.72514732 83.4375 217.9375 C87.09125408 222.17030886 91.00985416 226.08629373 95 230 C122.91283288 257.37810428 146.51351541 293.74104247 148 334 C148.07734375 335.68996094 148.07734375 335.68996094 148.15625 337.4140625 C149.11773234 377.39570302 132.46414896 413.69615351 106 443 C105.50999512 443.55026855 105.01999023 444.10053711 104.51513672 444.66748047 C86.54683687 464.81900672 65.07009971 480.42900968 41.875 494.0625 C41.06885254 494.54025879 40.26270508 495.01801758 39.43212891 495.51025391 C32.41216456 499.56587136 32.41216456 499.56587136 28 500 C28.49628906 499.175 28.99257813 498.35 29.50390625 497.5 C46.17133509 469.373972 53.2321937 439.23396063 45.3515625 406.76171875 C42.33089384 393.47846226 42.33089384 393.47846226 36 382 C35.64808594 383.02738281 35.29617188 384.05476563 34.93359375 385.11328125 C30.29146631 398.30375546 24.79347437 409.69096124 13 418 C9.9681394 419.40380528 7.26719876 420.20954869 4 421 C4.29166667 419.54166667 4.58333333 418.08333333 4.875 416.625 C5.05675781 415.70203125 5.23851562 414.7790625 5.42578125 413.828125 C5.77571116 412.10466068 6.14353757 410.38454396 6.54296875 408.671875 C12.64973026 381.67356095 6.57006121 354.20405403 -6 330 C-6.61287986 328.76997962 -7.22484721 327.53950419 -7.8359375 326.30859375 C-12.73325219 316.62512344 -18.68974328 307.8104587 -25 299 C-25.71470459 297.99839844 -25.71470459 297.99839844 -26.44384766 296.9765625 C-27.62815965 295.31694274 -28.81392863 293.65836285 -30 292 C-30.06469482 292.78310547 -30.12938965 293.56621094 -30.19604492 294.37304688 C-33.44856026 332.63267794 -39.70265919 370.80051737 -68.6171875 398.58203125 C-80.75764778 410.90161308 -88.20705621 426.65715594 -88.375 443.9375 C-88.15264269 462.8963861 -79.32465078 481.19925035 -67.0625 495.5625 C-65 498 -65 498 -65 500 C-91.24629357 489.94228201 -115.82385008 470.31546099 -136 451 C-136.50273437 450.52449707 -137.00546875 450.04899414 -137.5234375 449.55908203 C-164.14688798 424.27862921 -181.24309249 390.88408802 -182.3515625 353.90429688 C-182.84317827 304.78368774 -156.50193284 252.71927084 -124 217 C-123.01 216.34 -122.02 215.68 -121 215 C-120.731875 215.969375 -120.46375 216.93875 -120.1875 217.9375 C-115.06083368 235.75855496 -108.30708616 251.31393909 -92.00390625 261.39453125 C-88.0949681 263.48370366 -84.06953725 265.24902879 -80 267 C-80.20363159 266.06824951 -80.20363159 266.06824951 -80.41137695 265.11767578 C-88.5698512 227.32560674 -92.1533166 187.30966872 -85 149 C-84.83902832 148.08589355 -84.67805664 147.17178711 -84.51220703 146.22998047 C-76.61220713 102.28291088 -56.43096686 62.20489124 -28 28 C-27.53416504 27.43265137 -27.06833008 26.86530273 -26.58837891 26.28076172 C-20.81303311 19.26714428 -14.76917626 12.58093585 -8.375 6.125 C-7.77067139 5.51140625 -7.16634277 4.8978125 -6.54370117 4.265625 C-2.24674742 0 -2.24674742 0 0 0 Z " fill="#000000" transform="translate(273,6)"/>
</svg>
